<svg width="375" height="667" viewBox="0 0 375 667" fill="none" xmlns="http://www.w3.org/2000/svg">
<g clip-path="url(#clip0_504_28348)">
<rect width="375" height="667" transform="matrix(-1 0 0 1 375 0)" fill="url(#paint0_linear_504_28348)"/>
<path opacity="0.715466" fill-rule="evenodd" clip-rule="evenodd" d="M327.223 263.004C272.249 262.496 183.238 315.04 148.793 325.636C112.289 336.865 6.00033 352.339 6.00033 352.339C6.00033 352.339 315.655 449.298 418.349 448.629C521.043 447.961 512.443 331.672 512.443 331.672C512.443 331.672 380.062 263.492 327.223 263.004Z" fill="#FFE2D3"/>
<path fill-rule="evenodd" clip-rule="evenodd" d="M453.251 354.851C453.251 354.851 567.407 703.688 453.251 703.688C381.968 703.688 -350.048 757.85 -470.19 590.847C-472.153 588.118 -474.151 341.198 -429.557 353.756C-295.145 391.608 -226.405 360.754 -148.398 341.346C-70.3899 321.938 -60.427 268.643 36.2975 249.187C117.213 232.911 166.689 281.668 286.654 334.384C334.584 355.446 453.251 354.851 453.251 354.851Z" fill="url(#paint1_linear_504_28348)"/>
<path fill-rule="evenodd" clip-rule="evenodd" d="M239.424 65.3193C234.303 65.3193 229.699 67.4691 226.521 70.8886C222.639 67.4293 217.472 65.3193 211.801 65.3193C199.741 65.3193 189.965 74.8583 189.965 86.6251C189.965 87.1932 189.988 87.756 190.032 88.3129C182.538 91.688 177.337 99.0853 177.337 107.668C177.337 119.435 187.113 128.974 199.173 128.974C206.208 128.974 212.465 125.728 216.459 120.687C220.4 125.694 226.977 128.973 234.426 128.973C243.676 128.973 251.583 123.915 254.765 116.772C255.429 116.84 256.104 116.874 256.787 116.874C267.248 116.874 275.729 108.749 275.729 98.725C275.729 88.7014 267.248 80.5756 256.787 80.5756L256.712 80.5758C255.892 72.0183 248.465 65.3193 239.424 65.3193Z" fill="url(#paint2_linear_504_28348)"/>
<path fill-rule="evenodd" clip-rule="evenodd" d="M-43.082 208.152C-43.0439 207.512 -42.9799 206.869 -42.8892 206.224C-41.0103 192.855 -28.3795 183.577 -14.6775 185.503C-8.23315 186.409 -2.69961 189.631 1.15886 194.182C5.31583 190.804 10.8898 189.096 16.7089 189.914C26.9807 191.358 34.3493 200.155 33.9153 210.009L34.0004 210.02C45.8864 211.691 54.2244 222.277 52.6238 233.666C51.0232 245.055 40.0902 252.933 28.2041 251.263C27.4277 251.154 26.6665 251.007 25.9221 250.824C21.1668 258.432 11.3749 262.917 0.864077 261.44C-7.59891 260.25 -14.5485 255.474 -18.2266 249.156C-23.5689 254.245 -31.1971 256.934 -39.1898 255.81C-52.8918 253.885 -62.4762 241.486 -60.5972 228.116C-59.2268 218.365 -52.1362 210.79 -43.082 208.152Z" fill="url(#paint3_linear_504_28348)"/>
<path fill-rule="evenodd" clip-rule="evenodd" d="M357.46 155C366.553 155 374.727 158.817 380.369 164.888C387.262 158.746 396.435 155 406.506 155C427.917 155 445.275 171.936 445.275 192.829C445.275 193.837 445.235 194.836 445.155 195.825C458.462 201.817 467.696 214.952 467.696 230.19C467.696 251.082 450.339 268.019 428.927 268.019C416.437 268.019 405.326 262.256 398.236 253.306C391.239 262.196 379.56 268.019 366.335 268.019C349.91 268.019 335.871 259.037 330.222 246.354C329.043 246.474 327.845 246.536 326.632 246.536C308.058 246.536 293 232.108 293 214.311C293 196.514 308.058 182.087 326.632 182.087L326.765 182.087C328.222 166.894 341.408 155 357.46 155Z" fill="url(#paint4_linear_504_28348)"/>
<path fill-rule="evenodd" clip-rule="evenodd" d="M244.616 553.72L477.311 561.947L457.436 538.66L254.399 544.977L244.616 553.72Z" fill="url(#paint5_linear_504_28348)" fill-opacity="0.21" style="mix-blend-mode:multiply"/>
<ellipse cx="25.1" cy="3.01147" rx="25.1" ry="3.01147" transform="matrix(-1 0 0 1 205.2 542.91)" fill="url(#paint6_linear_504_28348)" fill-opacity="0.21" style="mix-blend-mode:multiply"/>
<path fill-rule="evenodd" clip-rule="evenodd" d="M314.221 493.927C314.221 493.927 320.172 503.172 318.188 515.259C316.205 527.345 316.453 545.141 316.453 545.141H309.878L301.672 491.264C301.672 491.264 310.992 487.741 314.221 488.426C317.451 489.111 314.221 493.927 314.221 493.927Z" fill="#9EA4B8"/>
<path fill-rule="evenodd" clip-rule="evenodd" d="M279.417 495.458C279.417 495.458 283.135 505.806 278.483 517.136C273.832 528.467 270.07 545.862 270.07 545.862L263.665 544.383L267.788 490.04L284.245 486.437L279.417 495.458Z" fill="#9EA4B8"/>
<path fill-rule="evenodd" clip-rule="evenodd" d="M316.645 544.917L308.6 542.49L303.192 544.917L295.563 545.712C294.348 545.838 293.333 546.69 292.997 547.864V547.864C292.269 550.412 294.182 552.948 296.831 552.948H309.445C313.421 552.948 316.645 549.724 316.645 545.748V544.917Z" fill="#02076F"/>
<path fill-rule="evenodd" clip-rule="evenodd" d="M270.461 544.917L262.417 542.49L257.008 544.917L249.379 545.712C248.165 545.838 247.149 546.69 246.814 547.864V547.864C246.086 550.412 247.998 552.948 250.648 552.948H263.261C267.237 552.948 270.461 549.724 270.461 545.748V544.917Z" fill="#02076F"/>
<path fill-rule="evenodd" clip-rule="evenodd" d="M318.652 493.439V439.516H270.509L264.329 493.439H286.304L293.071 465.675L297.838 493.439H318.652Z" fill="#02076F"/>
<path d="M317.395 424.278C327.159 412.892 327.452 413.158 331.535 406.228C333.484 402.92 335.843 400.244 335.663 399.898C332.985 394.766 325.069 389.555 312.35 376.275L317.77 363.065C335.766 377.017 341.94 388.196 345.086 394.225C345.849 395.687 347.2 398.343 347.117 400.162C346.754 408.173 337.056 418.403 318.814 430.689L317.395 424.278Z" fill="#9EA4B8"/>
<path fill-rule="evenodd" clip-rule="evenodd" d="M216.396 369.861C216.396 369.861 209.841 361.968 209.242 359.372C207.809 357.688 206.722 361.154 206.722 361.154C206.722 361.154 210.695 377.958 214.655 380.635C218.615 383.313 218.615 380.635 218.615 380.635L216.396 369.861Z" fill="#9EA4B8"/>
<path d="M173.268 540.012C161.868 524.025 167.045 491.586 193.653 458.806C220.262 426.026 248.23 390.851 214.62 368.766C204.018 361.801 185.166 357.932 170.256 365.934" stroke="#FC6F29" stroke-width="1.8"/>
<path fill-rule="evenodd" clip-rule="evenodd" d="M218.426 382.52C220.786 383.084 222.08 374.178 219.72 372.548C217.36 370.917 218.479 364.03 216.484 364.337C214.488 364.645 215.462 367.286 215.365 369.17C215.267 371.055 216.066 381.955 218.426 382.52Z" fill="#9EA4B8"/>
<path d="M220.732 378.89C232.452 388.25 232.197 388.552 239.265 392.39C242.639 394.223 245.396 396.487 245.736 396.295C250.771 393.44 255.702 385.347 268.53 372.172L281.922 377.128C268.607 395.599 257.65 402.16 251.734 405.515C243.986 409.908 230.223 402.375 214.375 380.531L220.732 378.89Z" fill="#9EA4B8"/>
<path fill-rule="evenodd" clip-rule="evenodd" d="M292.54 316.853C292.54 316.853 292.755 320.73 290.035 322.889C286.999 325.299 283.6 328.084 282.815 329.079C281.328 330.965 284.302 330.965 284.302 330.965L282.815 343.144L295.184 348.679L292.54 358.989H307.359L309.225 348.679C309.225 348.679 304.911 329.318 302.194 324.134C298.511 317.11 292.54 316.853 292.54 316.853Z" fill="#9EA4B8"/>
<ellipse cx="16.8734" cy="21.3313" rx="16.8734" ry="21.3313" transform="matrix(-1 0 0 1 327.688 306.509)" fill="#02076F"/>
<ellipse cx="7.02799" cy="6.52486" rx="7.02799" ry="6.52486" transform="matrix(-1 0 0 1 309.616 304)" fill="#02076F"/>
<ellipse cx="4.51799" cy="4.19455" rx="4.51799" ry="4.19455" transform="matrix(-1 0 0 1 314.637 304)" fill="#02076F"/>
<ellipse cx="7.02799" cy="6.52486" rx="7.02799" ry="6.52486" transform="matrix(-1 0 0 1 324.676 308.015)" fill="#02076F"/>
<ellipse cx="7.02799" cy="6.52486" rx="7.02799" ry="6.52486" transform="matrix(-1 0 0 1 328.692 315.042)" fill="#02076F"/>
<ellipse cx="3.51399" cy="3.26243" rx="3.51399" ry="3.26243" transform="matrix(-1 0 0 1 319.656 306.007)" fill="#02076F"/>
<ellipse cx="3.51399" cy="3.26243" rx="3.51399" ry="3.26243" transform="matrix(-1 0 0 1 299.576 308.015)" fill="#02076F"/>
<ellipse cx="3.51399" cy="3.26243" rx="3.51399" ry="3.26243" transform="matrix(-1 0 0 1 297.568 313.034)" fill="#02076F"/>
<ellipse cx="4.01599" cy="4.51721" rx="4.01599" ry="4.51721" transform="matrix(-1 0 0 1 298.572 328.091)" fill="#9EA4B8"/>
<path fill-rule="evenodd" clip-rule="evenodd" d="M340.372 379.688L319.01 359.882C319.01 359.882 308.73 356.198 302.042 356.198C298.786 356.198 303.496 356.198 292.158 356.198C287.966 356.198 275.995 359.882 275.995 359.882L260.213 379.688L270.231 393.909L281.188 379.688L268.967 447.571C268.967 447.571 281.375 451.706 292.158 451.706C302.94 451.706 319.01 447.69 319.01 447.69V384.524L326.901 393.909L340.372 379.688Z" fill="white"/>
<g style="mix-blend-mode:multiply" opacity="0.195312">
<path fill-rule="evenodd" clip-rule="evenodd" d="M297.867 493.514L296.679 455.064L293.157 465.743L297.867 493.514Z" fill="#3B3C45"/>
</g>
<g style="mix-blend-mode:multiply" opacity="0.549819">
<path fill-rule="evenodd" clip-rule="evenodd" d="M273.832 420.172L286.724 376.221C286.724 376.221 281.429 377.876 281.137 379.998C280.844 382.121 273.832 420.172 273.832 420.172Z" fill="#DEEAF4"/>
</g>
<ellipse cx="3.51399" cy="9.03442" rx="3.51399" ry="9.03442" transform="matrix(-1 0 0 1 164.037 527.853)" fill="#02076F"/>
<rect width="22.088" height="13.0497" transform="matrix(-1 0 0 1 183.112 530.864)" fill="#02076F"/>
<path fill-rule="evenodd" clip-rule="evenodd" d="M176.084 530.864H167.048C167.048 530.864 165.04 533.021 165.04 537.296C165.04 541.572 167.048 543.913 167.048 543.913H176.084C176.084 543.913 174.076 541.067 174.076 537.666C174.076 534.265 176.084 530.864 176.084 530.864Z" fill="#FF5B10"/>
<ellipse cx="3.51399" cy="10.0382" rx="3.51399" ry="10.0382" transform="matrix(-1 0 0 1 186.125 526.849)" fill="#737980"/>
<path fill-rule="evenodd" clip-rule="evenodd" d="M72.3619 52.7307L82.3019 71.4251L94.9605 64.6944L72.3619 52.7307Z" fill="#FF5B10"/>
<path fill-rule="evenodd" clip-rule="evenodd" d="M70.6591 53.6365L80.599 72.3309L67.9405 79.0616L70.6591 53.6365Z" fill="#737980"/>
<path fill-rule="evenodd" clip-rule="evenodd" d="M93.3087 92.1247L83.3687 73.4304L96.0273 66.6997L93.3087 92.1247Z" fill="#737980"/>
<path fill-rule="evenodd" clip-rule="evenodd" d="M91.6054 93.031L81.6654 74.3367L69.0068 81.0673L91.6054 93.031Z" fill="#FF5B10"/>
<path fill-rule="evenodd" clip-rule="evenodd" d="M97.0378 65.5222L103.334 59.5038L97.6011 56.8306L97.0378 65.5222Z" fill="#FF5B10"/>
<path fill-rule="evenodd" clip-rule="evenodd" d="M97.5142 66.3426L106.133 65.0865L104.71 71.2499L97.5142 66.3426Z" fill="#737980"/>
<path fill-rule="evenodd" clip-rule="evenodd" d="M67.911 80.6565L61.7208 86.7838L67.4995 89.3566L67.911 80.6565Z" fill="#FF5B10"/>
<path fill-rule="evenodd" clip-rule="evenodd" d="M67.4205 79.8451L58.825 81.2515L60.1401 75.0642L67.4205 79.8451Z" fill="#737980"/>
<path opacity="0.7" d="M92.5517 93.647C92.5517 97.1024 100.964 112.188 79.0599 131.333C57.1563 150.478 68.3305 175.498 79.0599 183.87" stroke="#FC6F29" stroke-width="3.24" stroke-linecap="round" stroke-linejoin="round"/>
<path fill-rule="evenodd" clip-rule="evenodd" d="M93.5278 109L98.1055 116.409L101.912 111.358L93.5278 109Z" fill="#FF5B10"/>
<path fill-rule="evenodd" clip-rule="evenodd" d="M93.7254 110.22L85.301 108.009L89.019 102.892L93.7254 110.22Z" fill="#737980"/>
<path fill-rule="evenodd" clip-rule="evenodd" d="M83.3064 127.601L83.8697 136.293L89.6025 133.62L83.3064 127.601Z" fill="#737980"/>
<path fill-rule="evenodd" clip-rule="evenodd" d="M83.054 127.772L76.8639 121.645L82.6426 119.072L83.054 127.772Z" fill="#FF5B10"/>
<path fill-rule="evenodd" clip-rule="evenodd" d="M67.6266 147.996L74.2701 153.628L76.3294 147.647L67.6266 147.996Z" fill="#FF5B10"/>
<path fill-rule="evenodd" clip-rule="evenodd" d="M67.9401 148.262L59.24 147.851L61.8128 142.072L67.9401 148.262Z" fill="#737980"/>
<path fill-rule="evenodd" clip-rule="evenodd" d="M70.2373 171.937L78.8767 173.043L77.3464 166.905L70.2373 171.937Z" fill="#737980"/>
<path fill-rule="evenodd" clip-rule="evenodd" d="M70.0695 172.264L62.4001 176.392L61.6292 170.114L70.0695 172.264Z" fill="#FF5B10"/>
<path d="M155.018 147.174C141.83 146.403 121.614 138.693 116.794 113.645C111.973 88.5958 99.069 76.4036 83.5969 73.1338" stroke="#FC6F29" stroke-width="1.62"/>
</g>
<defs>
<linearGradient id="paint0_linear_504_28348" x1="187.5" y1="667" x2="187.5" y2="-3.97563e-05" gradientUnits="userSpaceOnUse">
<stop offset="0.346974" stop-color="white"/>
<stop offset="1" stop-color="#F6F4F2"/>
</linearGradient>
<linearGradient id="paint1_linear_504_28348" x1="211.388" y1="284.739" x2="211.388" y2="517.733" gradientUnits="userSpaceOnUse">
<stop stop-color="#FFEFE7"/>
<stop offset="1" stop-color="#FFFBF9"/>
</linearGradient>
<linearGradient id="paint2_linear_504_28348" x1="258.179" y1="88.0268" x2="258.179" y2="128.974" gradientUnits="userSpaceOnUse">
<stop stop-color="white"/>
<stop offset="1" stop-color="white" stop-opacity="0.158486"/>
</linearGradient>
<linearGradient id="paint3_linear_504_28348" x1="34.3921" y1="218.709" x2="27.8536" y2="265.233" gradientUnits="userSpaceOnUse">
<stop stop-color="white"/>
<stop offset="1" stop-color="white" stop-opacity="0.158486"/>
</linearGradient>
<linearGradient id="paint4_linear_504_28348" x1="324.16" y1="195.317" x2="324.16" y2="268.019" gradientUnits="userSpaceOnUse">
<stop stop-color="white"/>
<stop offset="1" stop-color="white" stop-opacity="0.158486"/>
</linearGradient>
<linearGradient id="paint5_linear_504_28348" x1="119.108" y1="584.528" x2="117.979" y2="533.757" gradientUnits="userSpaceOnUse">
<stop stop-color="#536DB5" stop-opacity="0.01"/>
<stop offset="1" stop-color="#0E284B"/>
</linearGradient>
<linearGradient id="paint6_linear_504_28348" x1="26.3144" y1="9.35839" x2="27.6485" y2="-4.09378" gradientUnits="userSpaceOnUse">
<stop stop-color="#536DB5" stop-opacity="0.01"/>
<stop offset="1" stop-color="#0E284B"/>
</linearGradient>
<clipPath id="clip0_504_28348">
<rect width="375" height="667" fill="white" transform="matrix(-1 0 0 1 375 0)"/>
</clipPath>
</defs>
</svg>
