<svg width="1920" height="1080" viewBox="0 0 1920 1080" fill="none" xmlns="http://www.w3.org/2000/svg">
<g clip-path="url(#clip0_504_28166)">
<rect width="1920" height="1080" fill="url(#paint0_linear_504_28166)"/>
<path opacity="0.715466" fill-rule="evenodd" clip-rule="evenodd" d="M1574.8 582.936C1450.84 581.791 1250.13 700.273 1172.46 724.167C1090.14 749.489 850.472 784.381 850.472 784.381C850.472 784.381 1548.72 1003.01 1780.29 1001.51C2011.85 1000 1992.46 737.777 1992.46 737.777C1992.46 737.777 1693.95 584.037 1574.8 582.936Z" fill="#FFE2D3"/>
<path fill-rule="evenodd" clip-rule="evenodd" d="M1960.11 807.541C1960.11 807.541 2124.8 1422.09 1867.38 1422.09C1706.65 1422.09 148.737 1633.39 -122.173 1256.81C-126.601 1250.65 -131.106 693.869 -30.5496 722.187C272.538 807.541 427.541 820.852 603.442 777.087C779.343 733.323 801.809 613.148 1019.92 569.276C1202.37 532.575 1313.94 642.518 1584.45 761.389C1692.53 808.881 1960.11 807.541 1960.11 807.541Z" fill="url(#paint1_linear_504_28166)"/>
<path fill-rule="evenodd" clip-rule="evenodd" d="M97.6012 6.99023C79.4923 6.99023 63.2146 14.5915 51.9772 26.6826C38.2503 14.4508 19.9815 6.99023 -0.0732207 6.99023C-42.7147 6.99023 -77.2825 40.7192 -77.2825 82.326C-77.2825 84.3345 -77.2019 86.3248 -77.0438 88.2937C-103.543 100.228 -121.934 126.384 -121.934 156.732C-121.934 198.338 -87.3659 232.067 -44.7243 232.067C-19.8504 232.067 2.27631 220.59 16.397 202.768C30.3316 220.471 53.5891 232.067 79.9267 232.067C112.637 232.067 140.596 214.18 151.845 188.923C154.195 189.162 156.581 189.284 158.996 189.284C195.987 189.284 225.973 160.552 225.973 125.109C225.973 89.6665 195.987 60.9344 158.996 60.9344L158.862 60.9345L158.73 60.9349C155.829 30.6769 129.568 6.99023 97.6012 6.99023Z" fill="url(#paint2_linear_504_28166)"/>
<path fill-rule="evenodd" clip-rule="evenodd" d="M603.24 199.392C577.342 199.392 554.063 210.262 537.992 227.554C518.361 210.061 492.234 199.392 463.553 199.392C402.57 199.392 353.134 247.628 353.134 307.132C353.134 310.004 353.249 312.85 353.475 315.666C315.577 332.734 289.277 370.141 289.277 413.541C289.277 473.045 338.713 521.281 399.696 521.281C435.269 521.281 466.913 504.868 487.108 479.379C507.036 504.697 540.297 521.281 577.964 521.281C624.743 521.281 664.729 495.7 680.817 459.579C684.177 459.92 687.589 460.096 691.044 460.096C743.945 460.096 786.829 419.005 786.829 368.317C786.829 317.629 743.945 276.539 691.044 276.539C690.917 276.539 690.79 276.539 690.663 276.539C686.513 233.266 648.957 199.392 603.24 199.392Z" fill="url(#paint3_linear_504_28166)"/>
<path fill-rule="evenodd" clip-rule="evenodd" d="M1376.48 92.502C1364.93 92.502 1354.55 97.3494 1347.38 105.06C1338.63 97.2597 1326.98 92.502 1314.19 92.502C1287 92.502 1264.95 114.011 1264.95 140.545C1264.95 141.826 1265 143.095 1265.1 144.351C1248.2 151.961 1236.48 168.641 1236.48 187.994C1236.48 214.528 1258.52 236.037 1285.71 236.037C1301.58 236.037 1315.69 228.718 1324.69 217.352C1333.58 228.642 1348.41 236.037 1365.21 236.037C1386.07 236.037 1403.9 224.63 1411.07 208.523C1412.57 208.676 1414.09 208.754 1415.63 208.754C1439.22 208.754 1458.34 190.431 1458.34 167.828C1458.34 145.226 1439.22 126.903 1415.63 126.903C1415.57 126.903 1415.52 126.903 1415.46 126.903C1413.61 107.607 1396.86 92.502 1376.48 92.502Z" fill="url(#paint4_linear_504_28166)"/>
<path fill-rule="evenodd" clip-rule="evenodd" d="M768.164 -152.303C755.043 -154.147 742.474 -150.297 733.101 -142.681C724.4 -152.941 711.923 -160.207 697.392 -162.25C666.495 -166.592 638.014 -145.673 633.777 -115.526C633.572 -114.071 633.428 -112.62 633.342 -111.177C612.926 -105.229 596.937 -88.1494 593.847 -66.1605C589.61 -36.0135 611.222 -8.05432 642.119 -3.71206C660.142 -1.17909 677.343 -7.2418 689.389 -18.7178C697.683 -4.47147 713.354 6.29936 732.438 8.98137C756.138 12.3123 778.218 2.19899 788.941 -14.9565C790.619 -14.5441 792.336 -14.2124 794.086 -13.9664C820.888 -10.1996 845.541 -27.9645 849.15 -53.6453C852.76 -79.3262 833.958 -103.198 807.156 -106.965C807.092 -106.974 807.027 -106.983 806.963 -106.992C807.942 -129.211 791.326 -149.048 768.164 -152.303Z" fill="url(#paint5_linear_504_28166)"/>
<path fill-rule="evenodd" clip-rule="evenodd" d="M1698.95 167.199C1719.45 167.199 1737.88 175.805 1750.6 189.496C1766.15 175.646 1786.83 167.199 1809.54 167.199C1857.82 167.199 1896.96 205.389 1896.96 252.499C1896.96 254.773 1896.87 257.027 1896.69 259.256C1926.7 272.769 1947.52 302.385 1947.52 336.747C1947.52 383.857 1908.38 422.047 1860.1 422.047C1831.93 422.047 1806.88 409.052 1790.89 388.872C1775.11 408.917 1748.78 422.047 1718.96 422.047C1681.92 422.047 1650.26 401.794 1637.53 373.196C1634.87 373.466 1632.17 373.605 1629.43 373.605C1587.55 373.605 1553.59 341.072 1553.59 300.941C1553.59 260.811 1587.55 228.278 1629.43 228.278C1629.53 228.278 1629.63 228.278 1629.73 228.279C1633.02 194.018 1662.75 167.199 1698.95 167.199Z" fill="url(#paint6_linear_504_28166)"/>
<path fill-rule="evenodd" clip-rule="evenodd" d="M1387.16 1027.33L1911.87 1045.88L1867.06 993.368L1409.22 1007.61L1387.16 1027.33Z" fill="url(#paint7_linear_504_28166)" fill-opacity="0.21" style="mix-blend-mode:multiply"/>
<ellipse cx="56.5984" cy="6.79063" rx="56.5984" ry="6.79063" transform="matrix(-1 0 0 1 1298.28 1002.95)" fill="url(#paint8_linear_504_28166)" fill-opacity="0.21" style="mix-blend-mode:multiply"/>
<path fill-rule="evenodd" clip-rule="evenodd" d="M1544.12 892.496C1544.12 892.496 1557.53 913.344 1553.06 940.598C1548.59 967.852 1549.15 1007.98 1549.15 1007.98H1534.32L1515.82 886.491C1515.82 886.491 1536.84 878.547 1544.12 880.092C1551.4 881.638 1544.12 892.496 1544.12 892.496Z" fill="#9EA4B8"/>
<path fill-rule="evenodd" clip-rule="evenodd" d="M1465.64 895.95C1465.64 895.95 1474.02 919.282 1463.53 944.832C1453.04 970.381 1444.56 1009.61 1444.56 1009.61L1430.12 1006.27L1439.41 883.733L1476.52 875.608L1465.64 895.95Z" fill="#9EA4B8"/>
<path fill-rule="evenodd" clip-rule="evenodd" d="M1549.58 1007.48L1531.44 1002L1519.25 1007.48L1501.14 1009.36C1498.95 1009.59 1497.11 1011.13 1496.51 1013.25L1495.6 1016.41C1494.29 1021.01 1497.74 1025.59 1502.53 1025.59H1542.38C1546.36 1025.59 1549.58 1022.36 1549.58 1018.39V1007.48Z" fill="#02076F"/>
<path fill-rule="evenodd" clip-rule="evenodd" d="M1445.44 1007.48L1427.3 1002L1415.1 1007.48L1397 1009.36C1394.81 1009.59 1392.97 1011.13 1392.37 1013.25L1391.46 1016.41C1390.15 1021.01 1393.6 1025.59 1398.39 1025.59H1438.24C1442.22 1025.59 1445.44 1022.36 1445.44 1018.39V1007.48Z" fill="#02076F"/>
<path fill-rule="evenodd" clip-rule="evenodd" d="M1554.11 891.396V769.805H1445.55L1431.61 891.396H1481.17L1496.42 828.792L1507.18 891.396H1554.11Z" fill="#02076F"/>
<path d="M1551.27 735.445C1573.29 709.77 1573.95 710.37 1583.16 694.744C1587.55 687.284 1592.87 681.249 1592.46 680.468C1586.43 668.898 1568.58 657.147 1539.9 627.202L1552.12 597.413C1592.7 628.873 1606.62 654.081 1613.71 667.678C1615.43 670.973 1618.48 676.963 1618.29 681.065C1617.48 699.128 1595.61 722.196 1554.47 749.901L1551.27 735.445Z" fill="#9EA4B8"/>
<path fill-rule="evenodd" clip-rule="evenodd" d="M1323.53 612.737C1323.53 612.737 1308.75 594.939 1307.4 589.086C1304.17 585.288 1301.71 593.105 1301.71 593.105C1301.71 593.105 1310.67 630.995 1319.6 637.033C1328.53 643.071 1328.53 637.033 1328.53 637.033L1323.53 612.737Z" fill="#9EA4B8"/>
<path d="M1226.28 996.416C1200.58 960.366 1212.25 887.22 1272.25 813.303C1332.25 739.386 1395.31 660.069 1319.53 610.271C1295.62 594.564 1253.11 585.841 1219.49 603.883" stroke="#FC6F29" stroke-width="1.8"/>
<path fill-rule="evenodd" clip-rule="evenodd" d="M1328.11 641.282C1333.43 642.556 1336.35 622.473 1331.03 618.797C1325.7 615.12 1328.23 599.589 1323.73 600.282C1319.23 600.976 1321.42 606.932 1321.2 611.181C1320.98 615.43 1322.78 640.009 1328.11 641.282Z" fill="#9EA4B8"/>
<path d="M1333.31 633.096C1359.73 654.204 1359.16 654.884 1375.1 663.54C1382.7 667.671 1388.92 672.778 1389.69 672.344C1401.04 665.906 1412.16 647.657 1441.09 617.949L1471.29 629.124C1441.26 670.776 1416.55 685.568 1403.21 693.134C1385.74 703.04 1354.71 686.055 1318.97 636.797L1333.31 633.096Z" fill="#9EA4B8"/>
<path fill-rule="evenodd" clip-rule="evenodd" d="M1495.23 493.21C1495.23 493.21 1495.71 501.954 1489.58 506.821C1482.73 512.255 1475.07 518.536 1473.3 520.78C1469.95 525.032 1476.65 525.032 1476.65 525.032L1473.3 552.495L1501.19 564.975L1495.23 588.224H1528.64L1532.85 564.975C1532.85 564.975 1523.12 521.317 1517 509.628C1508.69 493.79 1495.23 493.21 1495.23 493.21Z" fill="#9EA4B8"/>
<ellipse cx="38.0482" cy="48.1003" rx="38.0482" ry="48.1003" transform="matrix(-1 0 0 1 1574.48 469.885)" fill="#02076F"/>
<ellipse cx="15.8476" cy="14.713" rx="15.8476" ry="14.713" transform="matrix(-1 0 0 1 1533.73 464.226)" fill="#02076F"/>
<ellipse cx="10.1877" cy="9.45838" rx="10.1877" ry="9.45838" transform="matrix(-1 0 0 1 1545.05 464.226)" fill="#02076F"/>
<ellipse cx="15.8476" cy="14.713" rx="15.8476" ry="14.713" transform="matrix(-1 0 0 1 1567.69 473.28)" fill="#02076F"/>
<ellipse cx="15.8476" cy="14.713" rx="15.8476" ry="14.713" transform="matrix(-1 0 0 1 1576.75 489.125)" fill="#02076F"/>
<ellipse cx="7.92378" cy="7.35652" rx="7.92378" ry="7.35652" transform="matrix(-1 0 0 1 1556.37 468.753)" fill="#02076F"/>
<ellipse cx="7.92378" cy="7.35652" rx="7.92378" ry="7.35652" transform="matrix(-1 0 0 1 1511.09 473.28)" fill="#02076F"/>
<ellipse cx="7.92378" cy="7.35652" rx="7.92378" ry="7.35652" transform="matrix(-1 0 0 1 1506.57 484.598)" fill="#02076F"/>
<ellipse cx="9.05575" cy="10.1859" rx="9.05575" ry="10.1859" transform="matrix(-1 0 0 1 1508.83 518.551)" fill="#9EA4B8"/>
<path fill-rule="evenodd" clip-rule="evenodd" d="M1603.08 634.899L1554.91 590.238C1554.91 590.238 1531.73 581.93 1516.65 581.93C1509.31 581.93 1519.93 581.93 1494.37 581.93C1484.91 581.93 1457.92 590.238 1457.92 590.238L1422.33 634.899L1444.92 666.967L1469.63 634.899L1442.07 787.97C1442.07 787.97 1470.05 797.293 1494.37 797.293C1518.68 797.293 1554.91 788.239 1554.91 788.239V645.804L1572.71 666.967L1603.08 634.899Z" fill="white"/>
<g style="mix-blend-mode:multiply" opacity="0.195312">
<path fill-rule="evenodd" clip-rule="evenodd" d="M1507.24 891.567L1504.56 804.866L1496.62 828.945L1507.24 891.567Z" fill="#3B3C45"/>
</g>
<g style="mix-blend-mode:multiply" opacity="0.549819">
<path fill-rule="evenodd" clip-rule="evenodd" d="M1453.04 726.186L1482.11 627.079C1482.11 627.079 1470.17 630.81 1469.51 635.596C1468.85 640.383 1453.04 726.186 1453.04 726.186Z" fill="#DEEAF4"/>
</g>
<ellipse cx="7.92378" cy="20.3719" rx="7.92378" ry="20.3719" transform="matrix(-1 0 0 1 1205.46 968.997)" fill="#02076F"/>
<rect width="49.8066" height="29.4261" transform="matrix(-1 0 0 1 1248.48 975.787)" fill="#02076F"/>
<path fill-rule="evenodd" clip-rule="evenodd" d="M1232.63 975.787H1212.25C1212.25 975.787 1207.73 980.652 1207.73 990.292C1207.73 999.932 1212.25 1005.21 1212.25 1005.21H1232.63C1232.63 1005.21 1228.1 998.796 1228.1 991.126C1228.1 983.457 1232.63 975.787 1232.63 975.787Z" fill="#FF5B10"/>
<ellipse cx="7.92378" cy="22.6354" rx="7.92378" ry="22.6354" transform="matrix(-1 0 0 1 1255.27 966.733)" fill="#737980"/>
<path fill-rule="evenodd" clip-rule="evenodd" d="M964.726 128.429L987.14 170.583L1015.68 155.406L964.726 128.429Z" fill="#FF5B10"/>
<path fill-rule="evenodd" clip-rule="evenodd" d="M960.885 130.471L983.299 172.626L954.755 187.803L960.885 130.471Z" fill="#737980"/>
<path fill-rule="evenodd" clip-rule="evenodd" d="M1011.96 217.26L989.544 175.106L1018.09 159.929L1011.96 217.26Z" fill="#737980"/>
<path fill-rule="evenodd" clip-rule="evenodd" d="M1008.12 219.302L985.704 177.148L957.16 192.325L1008.12 219.302Z" fill="#FF5B10"/>
<path fill-rule="evenodd" clip-rule="evenodd" d="M1020.37 157.273L1034.57 143.702L1021.64 137.674L1020.37 157.273Z" fill="#FF5B10"/>
<path fill-rule="evenodd" clip-rule="evenodd" d="M1021.44 159.122L1040.88 156.289L1037.67 170.187L1021.44 159.122Z" fill="#737980"/>
<path fill-rule="evenodd" clip-rule="evenodd" d="M954.691 191.399L940.733 205.216L953.763 211.017L954.691 191.399Z" fill="#FF5B10"/>
<path fill-rule="evenodd" clip-rule="evenodd" d="M953.585 189.569L934.203 192.74L937.168 178.789L953.585 189.569Z" fill="#737980"/>
<path opacity="0.7" d="M1010.25 220.692C1010.25 228.484 1029.22 262.501 979.83 305.671C930.439 348.841 955.637 405.259 979.83 424.138" stroke="#FC6F29" stroke-width="3.24" stroke-linecap="round" stroke-linejoin="round"/>
<path fill-rule="evenodd" clip-rule="evenodd" d="M1012.45 255.311L1022.78 272.02L1031.36 260.628L1012.45 255.311Z" fill="#FF5B10"/>
<path fill-rule="evenodd" clip-rule="evenodd" d="M1012.9 258.062L993.904 253.076L1002.29 241.536L1012.9 258.062Z" fill="#737980"/>
<path fill-rule="evenodd" clip-rule="evenodd" d="M989.406 297.257L990.676 316.856L1003.6 310.828L989.406 297.257Z" fill="#737980"/>
<path fill-rule="evenodd" clip-rule="evenodd" d="M988.836 297.641L974.878 283.825L987.908 278.023L988.836 297.641Z" fill="#FF5B10"/>
<path fill-rule="evenodd" clip-rule="evenodd" d="M954.049 343.244L969.03 355.945L973.674 342.459L954.049 343.244Z" fill="#FF5B10"/>
<path fill-rule="evenodd" clip-rule="evenodd" d="M954.757 343.845L935.139 342.917L940.94 329.887L954.757 343.845Z" fill="#737980"/>
<path fill-rule="evenodd" clip-rule="evenodd" d="M959.937 397.229L979.418 399.722L975.967 385.882L959.937 397.229Z" fill="#737980"/>
<path fill-rule="evenodd" clip-rule="evenodd" d="M959.558 397.967L942.264 407.276L940.525 393.118L959.558 397.967Z" fill="#FF5B10"/>
<path d="M1151.11 341.391C1121.37 339.652 1075.79 322.268 1064.92 265.785C1054.05 209.302 1024.95 181.809 990.061 174.436" stroke="#FC6F29" stroke-width="1.62"/>
</g>
<defs>
<linearGradient id="paint0_linear_504_28166" x1="960" y1="1080" x2="960" y2="0" gradientUnits="userSpaceOnUse">
<stop stop-color="white"/>
<stop offset="1" stop-color="#F6F4F2"/>
</linearGradient>
<linearGradient id="paint1_linear_504_28166" x1="1414.73" y1="566.562" x2="1414.73" y2="1091.94" gradientUnits="userSpaceOnUse">
<stop stop-color="#FFEFE7"/>
<stop offset="1" stop-color="#FFFBF9"/>
</linearGradient>
<linearGradient id="paint2_linear_504_28166" x1="163.919" y1="87.282" x2="163.919" y2="232.067" gradientUnits="userSpaceOnUse">
<stop stop-color="white"/>
<stop offset="1" stop-color="white" stop-opacity="0.158486"/>
</linearGradient>
<linearGradient id="paint3_linear_504_28166" x1="698.083" y1="314.219" x2="698.083" y2="521.281" gradientUnits="userSpaceOnUse">
<stop stop-color="white"/>
<stop offset="1" stop-color="white" stop-opacity="0.158486"/>
</linearGradient>
<linearGradient id="paint4_linear_504_28166" x1="1418.77" y1="143.705" x2="1418.77" y2="236.037" gradientUnits="userSpaceOnUse">
<stop stop-color="white"/>
<stop offset="1" stop-color="white" stop-opacity="0.158486"/>
</linearGradient>
<linearGradient id="paint5_linear_504_28166" x1="808.04" y1="-87.3729" x2="793.296" y2="17.5344" gradientUnits="userSpaceOnUse">
<stop stop-color="white"/>
<stop offset="1" stop-color="white" stop-opacity="0.158486"/>
</linearGradient>
<linearGradient id="paint6_linear_504_28166" x1="1623.86" y1="258.111" x2="1623.86" y2="422.047" gradientUnits="userSpaceOnUse">
<stop stop-color="white"/>
<stop offset="1" stop-color="white" stop-opacity="0.158486"/>
</linearGradient>
<linearGradient id="paint7_linear_504_28166" x1="1104.15" y1="1096.8" x2="1101.61" y2="982.311" gradientUnits="userSpaceOnUse">
<stop stop-color="#536DB5" stop-opacity="0.01"/>
<stop offset="1" stop-color="#0E284B"/>
</linearGradient>
<linearGradient id="paint8_linear_504_28166" x1="59.3368" y1="21.1024" x2="62.3451" y2="-9.23115" gradientUnits="userSpaceOnUse">
<stop stop-color="#536DB5" stop-opacity="0.01"/>
<stop offset="1" stop-color="#0E284B"/>
</linearGradient>
<clipPath id="clip0_504_28166">
<rect width="1920" height="1080" fill="white"/>
</clipPath>
</defs>
</svg>
