<svg width="152" height="68" viewBox="0 0 152 68" fill="none" xmlns="http://www.w3.org/2000/svg">
<path d="M118.184 52.7746H109.864V9.7666H118.184V52.7746Z" fill="#B0B8BF"/>
<path d="M103.023 34.8543H84.335V52.7743H75.439V10.2783H105.711V17.7023H84.335V27.3663H103.023V34.8543Z" fill="#B0B8BF"/>
<path d="M69.9105 52.7746H61.5905V21.2866H69.9105V52.7746ZM69.9105 17.5106H61.5905V9.7666H69.9105V17.5106Z" fill="#B0B8BF"/>
<path d="M47.236 52.7746H38.916V21.2866H46.724V25.0626C49.476 20.8386 52.676 20.4546 56.068 20.4546H57.156V28.9666C56.388 28.8386 55.62 28.7746 54.852 28.7746C49.732 28.7746 47.236 31.3346 47.236 36.3906V52.7746Z" fill="#B0B8BF"/>
<path d="M33.4222 2.07167C47.9716 -1.34667 53.4108 -0.162997 54.9156 2.92625C56.2383 5.64153 41.6889 9.20127 34.2489 10.6417V17.4542L25.1555 26V12.3267L17.7155 14.0358C12.6028 15.5 8.54225 13.1812 7.44002 11.4721L0 2.07167H8.26669C10.912 6.17367 14.3219 7.28486 15.9753 7C17.0775 7 18.8728 5.49 33.4222 2.07167Z" fill="#B0B8BF"/>
<path fill-rule="evenodd" clip-rule="evenodd" d="M16.263 34.0873V52.7745H25.159V26L16.263 34.0873Z" fill="#B0B8BF"/>
<path fill-rule="evenodd" clip-rule="evenodd" d="M143.628 25.4762V40.4862C143.628 43.8782 141.004 46.3742 137.228 46.3742C133.708 46.3742 131.916 44.3902 131.916 40.4862V21.2862H123.596V41.7022C123.596 48.6142 128.524 53.0942 135.116 53.0942C139.02 53.0942 142.476 51.4302 143.628 48.6142V53.7342C143.628 57.8942 140.876 60.5182 137.868 60.5182C133.516 60.5182 131.34 58.2142 131.34 54.5022H123.596C123.596 62.6302 128.268 67.6862 137.484 67.6862C145.548 67.6862 151.948 62.5022 151.948 53.6062V17.9126L143.628 25.4762Z" fill="#B0B8BF"/>
</svg>
