<svg width="840" height="420" viewBox="0 0 840 420" fill="none" xmlns="http://www.w3.org/2000/svg">
<rect width="840" height="420" fill="white"/>
<path d="M266.103 148.422C273.835 148.422 280.103 141.83 280.103 133.699C280.103 133.124 280.072 132.557 280.011 132H319.947V288.295H280.011C280.072 287.738 280.103 287.171 280.103 286.596C280.103 278.465 273.835 271.873 266.103 271.873C258.371 271.873 252.103 278.465 252.103 286.596C252.103 287.171 252.135 287.738 252.195 288.295H212.255V239.462C212.255 239.462 212.99 238.631 209.41 232.814C205.83 226.997 205 226.316 205 226.316L218.366 236.943C218.366 236.943 222.314 241.748 232.546 242.325C242.778 242.901 247.309 238.995 247.309 238.995L282.641 210.333L282.648 210.333L284.998 208.174C283.487 212.037 280.239 215.871 277.592 218.937L307.961 222.752L311.001 218.577C290.012 213.01 291.903 205.435 292.898 201.451C292.959 201.208 293.016 200.978 293.065 200.762L305.171 189.64C309.405 185.856 314.723 179.368 301.995 179.304C291.747 179.252 288.264 182.483 283.964 186.471C283.203 187.177 282.417 187.906 281.564 188.644C281.163 188.991 280.742 189.372 280.291 189.779C266.103 203.668 263.129 205.279 224.06 206.147L231.081 206.649L224.055 206.151L218.848 210.551C220.588 210.801 222.613 211.038 224.759 211.289C238.814 212.936 258.065 215.19 236.332 225.504C226.828 230.014 218.324 228.4 212.255 226.316V132H252.195C252.135 132.557 252.103 133.124 252.103 133.699C252.103 141.83 258.371 148.422 266.103 148.422Z" fill="#FF5B10"/>
<path fill-rule="evenodd" clip-rule="evenodd" d="M625 179.886V191.487L610.081 205.05V231.972C610.081 238.054 605.376 242.53 598.604 242.53C592.292 242.53 589.079 238.972 589.079 231.972V197.543H574.16V234.152C574.16 246.547 582.997 254.58 594.817 254.58C601.818 254.58 608.015 251.596 610.081 246.547V255.728C610.081 263.188 605.146 267.893 599.752 267.893C591.948 267.893 588.046 263.761 588.046 257.105H574.16C574.16 271.68 582.538 280.746 599.064 280.746C613.524 280.746 625 271.451 625 255.498V179.886H625Z" fill="#02076F"/>
<path d="M564.456 254.005H549.537V176.884H564.456V254.005Z" fill="#02076F"/>
<path d="M537.268 221.871H503.757V254.004H487.805V177.801H542.088V191.114H503.757V208.443H537.268V221.871Z" fill="#02076F"/>
<path d="M477.893 254.005H462.974V197.541H477.893V254.005ZM477.893 190.77H462.974V176.884H477.893V190.77Z" fill="#02076F"/>
<path d="M437.231 254.004H422.312V197.54H436.313V204.311C441.248 196.736 446.986 196.048 453.068 196.048H455.019V211.311C453.642 211.082 452.265 210.967 450.888 210.967C441.707 210.967 437.231 215.558 437.231 224.624V254.004Z" fill="#02076F"/>
<path d="M397.643 254.004H381.691V191.114H358.738V177.801H420.71V191.114H397.643V254.004Z" fill="#02076F"/>
</svg>
