<svg width="179" height="90" viewBox="0 0 179 90" fill="none" xmlns="http://www.w3.org/2000/svg">
<path fill-rule="evenodd" clip-rule="evenodd" d="M10.9481 18.7419C8.87393 19.5774 7.54846 21.1056 7.04915 23.0374C6.54984 24.9692 6.96876 26.9484 8.37828 28.6842C9.79649 30.4308 12.2377 31.9513 15.7998 32.872C19.3335 33.7853 23.9206 33.5942 27.716 32.8763C29.6098 32.5181 31.2806 32.0334 32.5032 31.5053C33.1158 31.2407 33.5984 30.9726 33.9371 30.7156C34.2891 30.4484 34.4214 30.2419 34.4528 30.1204C34.67 29.2801 34.3911 28.2757 33.6087 27.1493C32.8318 26.031 31.6083 24.8681 30.1009 23.7575C27.0875 21.5372 23.0381 19.5973 19.4693 18.6749C15.9072 17.7542 13.035 17.9013 10.9481 18.7419ZM10.5658 17.793C12.9128 16.8476 16.0203 16.7268 19.7253 17.6844C23.4236 18.6403 27.5916 20.6378 30.7078 22.9339C32.2653 24.0814 33.5846 25.3214 34.4489 26.5657C35.3076 27.8019 35.7681 29.1198 35.4433 30.3764C35.3254 30.8328 34.9704 31.2157 34.5556 31.5305C34.1275 31.8554 33.5638 32.1616 32.9089 32.4445C31.5967 33.0113 29.8484 33.5141 27.9062 33.8815C24.0296 34.6147 19.2773 34.8274 15.5438 33.8625C11.8388 32.9048 9.17905 31.2934 7.58408 29.3291C5.98043 27.3542 5.47396 25.0436 6.05865 22.7814C6.64334 20.5193 8.20602 18.7435 10.5658 17.793Z" fill="black"/>
<path fill-rule="evenodd" clip-rule="evenodd" d="M52.4492 10.469C49.7482 9.77087 46.8786 10.5302 44.8764 12.4728L37.9597 19.1838C36.9052 20.207 36.1528 21.5008 35.7851 22.9234L32.3333 36.2782C31.9994 37.5702 31.9939 38.9252 32.3174 40.2198L34.9996 50.9526C35.7105 53.7971 37.9204 56.0248 40.759 56.7585L158.493 87.1889C162.77 88.2945 167.134 85.7231 168.24 81.4454L176.183 50.7132C177.289 46.4355 174.717 42.0715 170.44 40.9658L52.4492 10.469ZM45.7211 32.8577C46.2867 30.6696 44.9713 28.4373 42.7832 27.8717C40.595 27.3062 38.3627 28.6215 37.7972 30.8097C37.2316 32.9978 38.547 35.2301 40.7351 35.7957C42.9232 36.3612 45.1556 35.0459 45.7211 32.8577Z" fill="#82E797"/>
<path d="M148.027 51.712C147.575 51.5953 147.149 51.6548 146.749 51.8905C146.37 52.1137 146.122 52.4512 146.006 52.9029L145.487 54.9103C145.374 55.3452 145.428 55.7605 145.647 56.1562C145.882 56.5562 146.226 56.8145 146.678 56.9313L148.259 57.3399C148.693 57.4523 149.111 57.3907 149.511 57.155C149.911 56.9193 150.167 56.584 150.28 56.149L150.798 54.1416C150.915 53.69 150.853 53.2725 150.613 52.8892C150.378 52.4892 150.042 52.233 149.608 52.1206L148.027 51.712ZM150.327 49.3354C150.93 49.491 151.468 49.7551 151.943 50.1277C152.418 50.5002 152.796 50.937 153.077 51.4379C153.374 51.9431 153.563 52.4915 153.642 53.083C153.742 53.6622 153.714 54.2528 153.559 54.855L153.04 56.8624C152.884 57.4647 152.62 58.0032 152.247 58.4779C151.892 58.957 151.461 59.3454 150.956 59.6432C150.472 59.9285 149.932 60.119 149.336 60.2149C148.744 60.294 148.147 60.2557 147.545 60.1L145.964 59.6915C145.362 59.5358 144.821 59.2801 144.342 58.9242C143.868 58.5517 143.479 58.1211 143.177 57.6326C142.896 57.1317 142.708 56.5833 142.612 55.9875C142.516 55.3916 142.546 54.7926 142.702 54.1904L143.22 52.183C143.376 51.5807 143.638 51.0506 144.006 50.5926C144.379 50.1178 144.809 49.7294 145.298 49.4274C145.803 49.1296 146.354 48.9329 146.95 48.837C147.545 48.7412 148.144 48.7711 148.747 48.9268L150.327 49.3354ZM143.886 64.9363L153.471 67.4138L157.68 51.1288L160.491 51.8552L155.581 70.8502L140.375 66.9199L141.971 60.7472L144.781 61.4736L143.886 64.9363Z" fill="white"/>
<path d="M134.201 47.1472L137.136 47.906L137.642 45.9488L140.578 46.7076L138.438 54.9881L123.884 51.2265L126.024 42.9459L128.935 43.6983L128.429 45.6555L131.39 46.4208L131.896 44.4636L134.706 45.19L134.201 47.1472ZM139.417 56.7937L138.768 59.303L131.843 57.5129L131.149 60.1978L128.489 59.5104L129.183 56.8255L125.72 55.9304L124.676 59.9703L136.77 63.0964L136.07 65.8064L121.115 61.941L122.859 55.1911L121.504 54.8409L122.153 52.3316L139.417 56.7937ZM127.443 49.4695L130.404 50.2348L130.748 48.9049L127.787 48.1396L127.443 49.4695ZM133.558 49.6313L133.215 50.9612L136.151 51.7201L136.494 50.3901L133.558 49.6313Z" fill="white"/>
<path d="M112.373 56.6574L111.66 59.4176L101.221 56.7196L106.085 37.9002L109.197 38.7044L105.046 54.7636L112.373 56.6574ZM119.764 48.1546L121.822 48.6865L121.141 51.3212L119.083 50.7893L116.508 60.7511L113.673 60.0182L118.582 41.0232L121.418 41.756L119.764 48.1546Z" fill="white"/>
<path d="M91.3384 39.2812C91.9072 39.4282 92.4082 39.6648 92.8414 39.9909C93.2747 40.317 93.6299 40.7033 93.9071 41.1497C94.1844 41.5961 94.3628 42.0795 94.4425 42.5998C94.5222 43.12 94.4928 43.6478 94.3545 44.1831L92.746 50.4061C92.6077 50.9414 92.3776 51.4173 92.0558 51.8338C91.734 52.2503 91.3437 52.5867 90.8848 52.8428C90.4303 53.0823 89.9346 53.2397 89.3976 53.315C88.8606 53.3904 88.3077 53.3546 87.7389 53.2075L86.2585 52.8249C85.7064 52.6822 85.2054 52.4456 84.7555 52.1152C84.3222 51.7891 83.9648 51.4112 83.6833 50.9815C83.4228 50.5394 83.2443 50.056 83.1479 49.5314C83.0683 49.0111 83.0976 48.4833 83.236 47.948L84.8444 41.7251C84.9828 41.1898 85.2128 40.7139 85.5346 40.2974C85.8732 39.8852 86.2635 39.5488 86.7056 39.2883C87.1644 39.0322 87.6623 38.8664 88.1993 38.7911C88.7531 38.72 89.3059 38.7559 89.858 38.8985L91.3384 39.2812ZM100.186 44.4055L102.244 44.9374L101.543 47.6474L99.4857 47.1155L97.2481 55.7725L94.4378 55.0461L99.3474 36.051L102.158 36.7774L100.186 44.4055ZM93.0074 35.724L96.8716 36.7228L96.2231 39.232L85.6842 36.5081L86.3328 33.9988L90.197 34.9976L90.6899 33.0906L93.5003 33.817L93.0074 35.724ZM87.8056 50.3605C88.3074 50.4902 88.7813 50.4521 89.2271 50.2461C89.6773 50.0234 89.9737 49.636 90.1164 49.084L91.42 44.0404C91.5627 43.4883 91.4911 43.0058 91.2052 42.5929C90.9194 42.1799 90.5255 41.9086 90.0237 41.7789L89.8229 41.727C89.3043 41.5929 88.82 41.6373 88.3698 41.86C87.9196 42.0827 87.6232 42.4701 87.4805 43.0221L86.1769 48.0657C86.0342 48.6178 86.1058 49.1003 86.3917 49.5132C86.6819 49.9095 87.0862 50.1746 87.6048 50.3086L87.8056 50.3605Z" fill="white"/>
<path d="M60.3614 43.6153L69.2944 45.9241L73.5684 29.3882L76.3788 30.1146L75.0038 35.4342L77.0614 35.966L76.3545 38.7011L74.2969 38.1693L71.4691 49.1096L56.8402 45.3285L58.4292 39.1808L61.3148 39.9267L60.3614 43.6153ZM60.8456 26.2068L70.7321 28.7622L70.0252 31.4972L62.9491 29.6683L61.7363 34.3606L68.8124 36.1895L68.1119 38.8995L58.2254 36.3442L60.8456 26.2068Z" fill="white"/>
<path fill-rule="evenodd" clip-rule="evenodd" d="M35.0245 25.8653C35.2981 25.936 35.4625 26.215 35.3918 26.4886L33.5997 33.422C33.529 33.6955 33.25 33.86 32.9765 33.7893C32.7029 33.7186 32.5385 33.4395 32.6092 33.166L34.4013 26.2326C34.472 25.959 34.751 25.7946 35.0245 25.8653Z" fill="black"/>
<path fill-rule="evenodd" clip-rule="evenodd" d="M33.816 28.5034C33.9092 28.2367 34.2009 28.096 34.4676 28.1892L38.3442 29.5434C38.6109 29.6366 38.7516 29.9283 38.6584 30.195C38.5653 30.4617 38.2736 30.6024 38.0069 30.5092L34.1302 29.155C33.8635 29.0619 33.7228 28.7701 33.816 28.5034Z" fill="black"/>
<path fill-rule="evenodd" clip-rule="evenodd" d="M38.2533 31.764C38.2056 32.0425 37.9412 32.2295 37.6627 32.1818L33.6154 31.4879C33.337 31.4402 33.1499 31.1757 33.1977 30.8973C33.2454 30.6188 33.5098 30.4318 33.7883 30.4796L37.8356 31.1734C38.114 31.2212 38.3011 31.4856 38.2533 31.764Z" fill="black"/>
</svg>
