<svg width="640" height="270" viewBox="0 0 640 270" fill="none" xmlns="http://www.w3.org/2000/svg">
<path d="M124 0L149.188 38.2175L191.039 19.6846L191.567 65.4528L236.794 72.4885L212.494 111.276L246.738 141.647L205.325 161.14L217.713 205.203L172.335 199.211L158.935 242.977L124 213.404L89.0652 242.977L75.6646 199.211L30.2871 205.203L42.6753 161.14L1.26214 141.647L35.506 111.276L11.2056 72.4885L56.433 65.4528L56.9605 19.6846L98.812 38.2175L124 0Z" fill="white"/>
<path d="M564.5 119L579.836 142.27L605.318 130.985L605.64 158.852L633.177 163.136L618.381 186.753L639.232 205.245L614.016 217.113L621.559 243.942L593.93 240.294L585.771 266.942L564.5 248.936L543.229 266.942L535.07 240.294L507.441 243.942L514.984 217.113L489.768 205.245L510.619 186.753L495.823 163.136L523.36 158.852L523.682 130.985L549.164 142.27L564.5 119Z" fill="white" fill-opacity="0.71"/>
<path d="M51.2519 141.645C46.8655 145.998 41.041 159.672 43.5578 159.672C44.924 159.672 51.6114 151.645 53.481 147.767C55.5664 143.481 56.0697 139.944 54.6316 139.468C54.1282 139.264 52.6182 140.284 51.2519 141.645Z" fill="#82E797"/>
<path d="M57.1484 161.984C55.5664 163.48 54.4878 169.059 54.4878 175.657C54.4878 181.848 54.8473 183.48 56.3574 183.48C57.436 183.48 60.0966 175.589 60.6719 170.691C61.1033 166.882 60.1685 161.576 59.0899 161.236C58.5865 161.099 57.7236 161.44 57.1484 161.984Z" fill="#82E797"/>
<path d="M35.0728 172.936C34.6414 173.413 33.8504 175.862 33.4189 178.243C32.7718 181.848 32.8437 183.413 33.8504 187.29C35.2166 192.528 36.6548 194.501 38.0929 193.141C39.1716 192.12 39.3873 177.018 38.4525 173.753C37.8772 171.712 36.4391 171.372 35.0728 172.936Z" fill="#82E797"/>
<path d="M67.6469 179.808C66.4245 182.801 71.8176 196.406 75.413 199.536C76.6354 200.556 76.7792 200.556 77.2107 199.604C77.4264 199.059 77.1388 196.066 76.4916 193.005C74.7658 184.161 69.2289 175.93 67.6469 179.808Z" fill="#82E797"/>
<path d="M54.2002 198.991C53.6249 200.691 54.8473 205.861 56.645 209.535C58.2989 212.936 62.7572 217.494 64.3392 217.494C66.7121 217.494 63.6201 207.698 59.3775 201.508C56.7888 197.834 54.8473 196.882 54.2002 198.991Z" fill="#82E797"/>
<path d="M35.792 209.331C35.792 211.508 38.3807 216.814 40.6098 219.195C43.7738 222.596 47.6568 223.957 48.4478 221.916C49.0949 220.283 45.4276 213.821 41.9042 210.351C38.093 206.678 35.792 206.27 35.792 209.331Z" fill="#82E797"/>
<path d="M82.5317 213.141C80.5902 215.25 85.9833 221.577 92.455 224.842C99.7177 228.516 102.234 227.495 97.9919 222.597C95.6189 219.808 88.7877 214.706 84.9766 212.869C83.7541 212.257 83.1789 212.325 82.5317 213.141Z" fill="#82E797"/>
<path d="M70.0919 230.215C67.1437 232.936 79.2242 241.916 84.7611 241.168C85.6959 241.1 86.5588 240.488 86.7026 239.943C87.3498 236.678 72.3929 227.97 70.0919 230.215Z" fill="#82E797"/>
<path d="M52.3306 232.665C52.3306 235.862 61.2471 241.984 65.993 241.984C67.6469 241.984 68.1503 241.712 68.1503 240.624C68.1503 237.563 58.7304 231.1 54.2721 231.1C52.762 231.1 52.3306 231.44 52.3306 232.665Z" fill="#82E797"/>
<path d="M114.027 234.365C111.151 234.705 110.073 236.27 111.583 237.835C115.609 242.052 132.436 241.576 130.063 237.29C128.912 235.386 119.852 233.685 114.027 234.365Z" fill="#82E797"/>
<path d="M148.328 235.453C138.332 238.515 137.47 242.528 146.961 241.78C152.426 241.372 158.395 238.447 158.395 236.202C158.395 235.045 157.819 234.841 154.799 234.705C152.858 234.637 149.91 234.977 148.328 235.453Z" fill="#82E797"/>
<path d="M96.0502 245.113C95.2592 245.317 94.7559 246.134 94.7559 247.154C94.7559 248.515 95.403 249.127 97.9917 250.215C102.306 251.984 107.555 252.528 110.863 251.508C113.811 250.624 114.027 250.147 112.158 248.583C109.281 246.134 99.7894 244.093 96.0502 245.113Z" fill="#82E797"/>
<path d="M371.198 50.8213C370.93 51.2652 369.388 54.119 367.778 57.163C366.236 60.2705 363.554 64.1389 361.878 65.8512C358.525 69.2757 358.324 69.9099 360.134 71.1148C362.079 72.4466 363.956 75.8711 365.834 81.8323C368.315 89.5692 370.729 90.9644 372.338 85.4471C374.752 76.8858 375.959 75.0467 381.19 72.0661C382.195 71.4319 383 70.6709 383 70.2904C383 69.9099 381.525 68.261 379.714 66.6122C376.227 63.5047 375.289 61.4754 374.551 55.1337C373.948 50.631 372.539 48.7919 371.198 50.8213ZM372.204 61.5388C372.673 62.8071 373.948 65.1536 375.02 66.8024L377.099 69.7196L374.752 72.3832C373.478 73.9052 371.735 76.3784 370.93 77.9639L369.388 80.8177L368.248 77.5834C366.773 73.5247 365.297 70.7977 363.956 69.783C363.018 69.022 363.152 68.6415 365.163 66.4219C366.437 65.0902 368.114 62.6803 368.985 61.1583C370.729 58.0508 371.064 58.1143 372.204 61.5388Z" fill="#82E797"/>
<path d="M54.6372 43.5574C53.5705 44.6926 51.7039 48.4768 50.6372 51.8825C45.7039 65.7577 34.7705 76.6055 25.7039 76.6055C21.4372 76.6055 16.9039 79.5067 18.2372 81.3988C18.6372 82.1556 21.9705 83.6693 25.5705 84.8045C36.2372 88.0841 38.7705 91.3637 44.9039 109.149C48.9039 120.249 51.9705 123.529 55.4372 120.123C56.6372 119.114 57.8372 115.834 58.3705 112.933C60.5039 100.824 67.0372 92.4989 79.0372 86.6966C85.8372 83.417 85.9705 80.2635 79.5705 76.4794C71.3039 71.6862 68.5039 67.6497 64.2372 54.9098C59.9705 42.296 57.9705 39.8994 54.6372 43.5574ZM64.2372 72.0646C65.8372 74.4612 68.6372 77.4885 70.5039 78.7499L73.8372 81.0204L66.9039 85.9398C63.1705 88.5887 58.2372 93.6342 55.9705 97.0399L51.7039 103.473L48.1039 95.7785C46.1039 91.616 42.7705 86.5705 40.6372 84.6784L36.7705 81.0204L43.0372 75.218C46.6372 72.0646 51.0372 66.3884 53.0372 62.6042L56.6372 55.9189L59.0372 61.7213C60.3705 65.0008 62.6372 69.668 64.2372 72.0646Z" fill="#82E797"/>
</svg>
