<svg width="388" height="253" viewBox="0 0 388 253" fill="none" xmlns="http://www.w3.org/2000/svg">
<path d="M129 -0.000488281L154.188 38.217L196.039 19.6841L196.567 65.4523L241.794 72.4881L217.494 111.276L251.738 141.647L210.325 161.139L222.713 205.202L177.335 199.211L163.935 242.977L129 213.404L94.0652 242.977L80.6646 199.211L35.2871 205.202L47.6753 161.139L6.26214 141.647L40.506 111.276L16.2056 72.4881L61.433 65.4523L61.9605 19.6841L103.812 38.217L129 -0.000488281Z" fill="white"/>
<path d="M33.2519 141.644C28.8655 145.998 23.041 159.671 25.5578 159.671C26.924 159.671 33.6114 151.644 35.481 147.767C37.5664 143.481 38.0697 139.943 36.6316 139.467C36.1282 139.263 34.6182 140.284 33.2519 141.644Z" fill="#82E797"/>
<path d="M39.1484 161.984C37.5664 163.48 36.4878 169.059 36.4878 175.657C36.4878 181.848 36.8473 183.48 38.3574 183.48C39.436 183.48 42.0966 175.589 42.6719 170.691C43.1033 166.882 42.1685 161.576 41.0899 161.236C40.5865 161.099 39.7236 161.44 39.1484 161.984Z" fill="#82E797"/>
<path d="M17.0728 172.936C16.6414 173.413 15.8504 175.862 15.4189 178.243C14.7718 181.848 14.8437 183.413 15.8504 187.29C17.2166 192.528 18.6548 194.501 20.0929 193.141C21.1716 192.12 21.3873 177.018 20.4525 173.753C19.8772 171.712 18.4391 171.372 17.0728 172.936Z" fill="#82E797"/>
<path d="M49.6469 179.808C48.4244 182.801 53.8175 196.406 57.4129 199.536C58.6353 200.556 58.7792 200.556 59.2106 199.604C59.4263 199.059 59.1387 196.066 58.4915 193.005C56.7657 184.161 51.2288 175.93 49.6469 179.808Z" fill="#82E797"/>
<path d="M36.2002 198.991C35.6249 200.691 36.8473 205.861 38.645 209.535C40.2989 212.936 44.7572 217.494 46.3392 217.494C48.7121 217.494 45.6201 207.698 41.3775 201.508C38.7888 197.834 36.8473 196.882 36.2002 198.991Z" fill="#82E797"/>
<path d="M17.7919 209.332C17.7919 211.508 20.3806 216.815 22.6097 219.196C25.7737 222.597 29.6567 223.957 30.4477 221.917C31.0949 220.284 27.4276 213.821 23.9041 210.352C20.093 206.679 17.7919 206.27 17.7919 209.332Z" fill="#82E797"/>
<path d="M64.5318 213.141C62.5903 215.25 67.9833 221.577 74.455 224.842C81.7177 228.516 84.2345 227.495 79.9919 222.597C77.619 219.808 70.7877 214.706 66.9766 212.869C65.7542 212.257 65.1789 212.325 64.5318 213.141Z" fill="#82E797"/>
<path d="M52.0917 230.215C49.1435 232.936 61.224 241.916 66.7609 241.168C67.6957 241.1 68.5586 240.488 68.7024 239.943C69.3496 236.678 54.3928 227.97 52.0917 230.215Z" fill="#82E797"/>
<path d="M34.3306 232.664C34.3306 235.861 43.2471 241.984 47.993 241.984C49.6469 241.984 50.1503 241.712 50.1503 240.623C50.1503 237.562 40.7304 231.1 36.2721 231.1C34.762 231.1 34.3306 231.44 34.3306 232.664Z" fill="#82E797"/>
<path d="M96.0274 234.365C93.1511 234.705 92.0725 236.269 93.5825 237.834C97.6094 242.052 114.436 241.576 112.063 237.29C110.912 235.385 101.852 233.684 96.0274 234.365Z" fill="#82E797"/>
<path d="M130.327 235.453C120.332 238.515 119.469 242.528 128.961 241.78C134.426 241.372 140.394 238.447 140.394 236.202C140.394 235.045 139.819 234.841 136.799 234.705C134.858 234.637 131.909 234.977 130.327 235.453Z" fill="#82E797"/>
<path d="M78.0504 245.113C77.2594 245.317 76.756 246.133 76.756 247.154C76.756 248.514 77.4032 249.127 79.9919 250.215C84.3064 251.984 89.5556 252.528 92.8634 251.507C95.8116 250.623 96.0273 250.147 94.1577 248.582C91.2814 246.133 81.7896 244.092 78.0504 245.113Z" fill="#82E797"/>
<path d="M376.198 75.9326C375.93 76.3765 374.388 79.2303 372.778 82.2743C371.236 85.3818 368.554 89.2502 366.878 90.9625C363.525 94.387 363.324 95.0212 365.134 96.2261C367.079 97.5579 368.956 100.982 370.834 106.944C373.315 114.681 375.729 116.076 377.338 110.558C379.752 101.997 380.959 100.158 386.19 97.1774C387.195 96.5432 388 95.7822 388 95.4017C388 95.0212 386.525 93.3724 384.714 91.7235C381.227 88.6161 380.289 86.5867 379.551 80.245C378.948 75.7424 377.539 73.9033 376.198 75.9326ZM377.204 86.6501C377.673 87.9185 378.948 90.2649 380.02 91.9138L382.099 94.831L379.752 97.4945C378.478 99.0165 376.735 101.49 375.93 103.075L374.388 105.929L373.248 102.695C371.773 98.636 370.297 95.909 368.956 94.8944C368.018 94.1334 368.152 93.7529 370.163 91.5333C371.437 90.2015 373.114 87.7916 373.985 86.2696C375.729 83.1622 376.064 83.2256 377.204 86.6501Z" fill="#82E797"/>
<path d="M36.6372 43.5579C35.5705 44.6931 33.7039 48.4772 32.6372 51.883C27.7039 65.7582 16.7705 76.606 7.70385 76.606C3.43719 76.606 -1.09615 79.5072 0.237186 81.3993C0.637186 82.1561 3.97052 83.6698 7.57052 84.805C18.2372 88.0846 20.7705 91.3642 26.9039 109.15C30.9039 120.25 33.9705 123.529 37.4372 120.124C38.6372 119.115 39.8372 115.835 40.3705 112.934C42.5039 100.825 49.0372 92.4994 61.0372 86.6971C67.8372 83.4175 67.9705 80.264 61.5705 76.4799C53.3039 71.6866 50.5039 67.6502 46.2372 54.9103C41.9705 42.2965 39.9705 39.8999 36.6372 43.5579ZM46.2372 72.0651C47.8372 74.4617 50.6372 77.489 52.5039 78.7504L55.8372 81.0209L48.9039 85.9403C45.1705 88.5891 40.2372 93.6347 37.9705 97.0404L33.7039 103.473L30.1039 95.779C28.1039 91.6165 24.7705 86.5709 22.6372 84.6789L18.7705 81.0209L25.0372 75.2185C28.6372 72.0651 33.0372 66.3889 35.0372 62.6047L38.6372 55.9194L41.0372 61.7217C42.3705 65.0013 44.6372 69.6684 46.2372 72.0651Z" fill="#82E797"/>
</svg>
