<svg width="1080" height="294" viewBox="0 0 1080 294" fill="none" xmlns="http://www.w3.org/2000/svg">
<path d="M195 14L220.188 52.2175L262.039 33.6846L262.567 79.4528L307.794 86.4885L283.494 125.276L317.738 155.647L276.325 175.14L288.713 219.203L243.335 213.211L229.935 256.977L195 227.404L160.065 256.977L146.665 213.211L101.287 219.203L113.675 175.14L72.2621 155.647L106.506 125.276L82.2056 86.4885L127.433 79.4528L127.961 33.6846L169.812 52.2175L195 14Z" fill="white"/>
<path d="M635.5 133L650.836 156.27L676.318 144.985L676.64 172.852L704.177 177.136L689.381 200.753L710.232 219.245L685.016 231.113L692.559 257.942L664.93 254.294L656.771 280.942L635.5 262.936L614.229 280.942L606.07 254.294L578.441 257.942L585.984 231.113L560.768 219.245L581.619 200.753L566.823 177.136L594.36 172.852L594.682 144.985L620.164 156.27L635.5 133Z" fill="white" fill-opacity="0.71"/>
<path d="M122.252 155.645C117.866 159.998 112.041 173.672 114.558 173.672C115.924 173.672 122.611 165.645 124.481 161.767C126.566 157.481 127.07 153.944 125.632 153.468C125.128 153.264 123.618 154.284 122.252 155.645Z" fill="#82E797"/>
<path d="M128.148 175.984C126.566 177.48 125.488 183.059 125.488 189.657C125.488 195.848 125.847 197.48 127.357 197.48C128.436 197.48 131.097 189.589 131.672 184.691C132.103 180.882 131.169 175.576 130.09 175.236C129.587 175.099 128.724 175.44 128.148 175.984Z" fill="#82E797"/>
<path d="M106.073 186.936C105.641 187.413 104.85 189.862 104.419 192.243C103.772 195.848 103.844 197.413 104.85 201.29C106.217 206.528 107.655 208.501 109.093 207.141C110.172 206.12 110.387 191.018 109.452 187.753C108.877 185.712 107.439 185.372 106.073 186.936Z" fill="#82E797"/>
<path d="M138.647 193.808C137.424 196.801 142.818 210.406 146.413 213.536C147.635 214.556 147.779 214.556 148.211 213.604C148.426 213.059 148.139 210.066 147.492 207.005C145.766 198.161 140.229 189.93 138.647 193.808Z" fill="#82E797"/>
<path d="M125.2 212.991C124.625 214.691 125.847 219.861 127.645 223.535C129.299 226.936 133.757 231.494 135.339 231.494C137.712 231.494 134.62 221.698 130.378 215.508C127.789 211.834 125.847 210.882 125.2 212.991Z" fill="#82E797"/>
<path d="M106.792 223.331C106.792 225.508 109.381 230.814 111.61 233.195C114.774 236.596 118.657 237.957 119.448 235.916C120.095 234.283 116.428 227.821 112.904 224.351C109.093 220.678 106.792 220.27 106.792 223.331Z" fill="#82E797"/>
<path d="M153.532 227.141C151.59 229.25 156.983 235.577 163.455 238.842C170.718 242.516 173.234 241.495 168.992 236.597C166.619 233.808 159.788 228.706 155.977 226.869C154.754 226.257 154.179 226.325 153.532 227.141Z" fill="#82E797"/>
<path d="M141.092 244.215C138.144 246.936 150.224 255.916 155.761 255.168C156.696 255.1 157.559 254.488 157.703 253.943C158.35 250.678 143.393 241.97 141.092 244.215Z" fill="#82E797"/>
<path d="M123.331 246.665C123.331 249.862 132.247 255.984 136.993 255.984C138.647 255.984 139.15 255.712 139.15 254.624C139.15 251.563 129.73 245.1 125.272 245.1C123.762 245.1 123.331 245.44 123.331 246.665Z" fill="#82E797"/>
<path d="M185.027 248.365C182.151 248.705 181.073 250.27 182.583 251.835C186.609 256.052 203.436 255.576 201.063 251.29C199.912 249.386 190.852 247.685 185.027 248.365Z" fill="#82E797"/>
<path d="M219.328 249.453C209.332 252.515 208.47 256.528 217.961 255.78C223.426 255.372 229.395 252.447 229.395 250.202C229.395 249.045 228.819 248.841 225.799 248.705C223.858 248.637 220.91 248.977 219.328 249.453Z" fill="#82E797"/>
<path d="M167.05 259.113C166.259 259.317 165.756 260.134 165.756 261.154C165.756 262.515 166.403 263.127 168.992 264.215C173.306 265.984 178.555 266.528 181.863 265.508C184.811 264.624 185.027 264.147 183.158 262.583C180.281 260.134 170.789 258.093 167.05 259.113Z" fill="#82E797"/>
<path d="M442.198 64.8213C441.93 65.2652 440.388 68.119 438.778 71.163C437.236 74.2705 434.554 78.1389 432.878 79.8512C429.525 83.2757 429.324 83.9099 431.134 85.1148C433.079 86.4466 434.956 89.8711 436.834 95.8323C439.315 103.569 441.729 104.964 443.338 99.4471C445.752 90.8858 446.959 89.0467 452.19 86.0661C453.195 85.4319 454 84.6709 454 84.2904C454 83.9099 452.525 82.261 450.714 80.6122C447.227 77.5047 446.289 75.4754 445.551 69.1337C444.948 64.631 443.539 62.7919 442.198 64.8213ZM443.204 75.5388C443.673 76.8071 444.948 79.1536 446.02 80.8024L448.099 83.7196L445.752 86.3832C444.478 87.9052 442.735 90.3784 441.93 91.9639L440.388 94.8177L439.248 91.5834C437.773 87.5247 436.297 84.7977 434.956 83.783C434.018 83.022 434.152 82.6415 436.163 80.4219C437.437 79.0902 439.114 76.6803 439.985 75.1583C441.729 72.0508 442.064 72.1143 443.204 75.5388Z" fill="#82E797"/>
<path d="M125.637 57.5574C124.571 58.6926 122.704 62.4768 121.637 65.8825C116.704 79.7577 105.771 90.6055 96.7039 90.6055C92.4372 90.6055 87.9039 93.5067 89.2372 95.3988C89.6372 96.1556 92.9705 97.6693 96.5705 98.8045C107.237 102.084 109.771 105.364 115.904 123.149C119.904 134.249 122.971 137.529 126.437 134.123C127.637 133.114 128.837 129.834 129.371 126.933C131.504 114.824 138.037 106.499 150.037 100.697C156.837 97.417 156.971 94.2635 150.571 90.4794C142.304 85.6862 139.504 81.6497 135.237 68.9098C130.971 56.296 128.971 53.8994 125.637 57.5574ZM135.237 86.0646C136.837 88.4612 139.637 91.4885 141.504 92.7499L144.837 95.0204L137.904 99.9398C134.171 102.589 129.237 107.634 126.971 111.04L122.704 117.473L119.104 109.779C117.104 105.616 113.771 100.57 111.637 98.6784L107.771 95.0204L114.037 89.218C117.637 86.0646 122.037 80.3884 124.037 76.6042L127.637 69.9189L130.037 75.7213C131.371 79.0008 133.637 83.6679 135.237 86.0646Z" fill="#82E797"/>
</svg>
