<svg width="315" height="106" viewBox="0 0 315 106" fill="none" xmlns="http://www.w3.org/2000/svg">
<path d="M52 0L61.3439 14.1775L76.8695 7.30234L77.0652 24.2809L93.8431 26.8909L84.8284 41.28L97.5318 52.5465L82.1689 59.7777L86.7645 76.1236L69.9309 73.901L64.9597 90.1367L52 79.166L39.0403 90.1367L34.0691 73.901L17.2355 76.1236L21.8311 59.7777L6.46821 52.5465L19.1716 41.28L10.1569 26.8909L26.9348 24.2809L27.1305 7.30234L42.6561 14.1775L52 0Z" fill="white"/>
<path d="M280.546 38.9844L287.348 49.3042L298.649 44.2998L298.791 56.6585L311.004 58.5583L304.442 69.0321L313.689 77.233L302.506 82.4966L305.852 94.3948L293.598 92.777L289.98 104.595L280.546 96.6094L271.113 104.595L267.495 92.777L255.241 94.3948L258.587 82.4966L247.404 77.233L256.651 69.0321L250.089 58.5583L262.301 56.6585L262.444 44.2998L273.745 49.3042L280.546 38.9844Z" fill="white" fill-opacity="0.71"/>
<path d="M6.76071 71.0641C5.71688 72.1266 4.33081 75.4634 4.92973 75.4634C5.25486 75.4634 6.84627 73.5045 7.29118 72.5582C7.78742 71.5124 7.9072 70.6491 7.56497 70.5329C7.44518 70.4831 7.08583 70.7321 6.76071 71.0641Z" fill="#82E797"/>
<path d="M8.1639 76.0275C7.78744 76.3928 7.53076 77.754 7.53076 79.3643C7.53076 80.875 7.61632 81.2734 7.97567 81.2734C8.23235 81.2734 8.86549 79.3477 9.00239 78.1525C9.10506 77.2228 8.8826 75.9279 8.62592 75.8449C8.50614 75.8117 8.3008 75.8947 8.1639 76.0275Z" fill="#82E797"/>
<path d="M2.91075 78.7002C2.80808 78.8164 2.61985 79.414 2.51718 79.995C2.36317 80.8749 2.38028 81.2567 2.61985 82.203C2.94497 83.4812 3.28721 83.9627 3.62945 83.6306C3.88613 83.3816 3.93746 79.6962 3.71501 78.8994C3.57811 78.4014 3.23588 78.3183 2.91075 78.7002Z" fill="#82E797"/>
<path d="M10.6624 80.3772C10.3715 81.1077 11.6549 84.4278 12.5105 85.1915C12.8014 85.4405 12.8356 85.4405 12.9383 85.2081C12.9896 85.0753 12.9212 84.3448 12.7672 83.5978C12.3565 81.4397 11.0389 79.431 10.6624 80.3772Z" fill="#82E797"/>
<path d="M7.46238 85.0583C7.32548 85.4733 7.61639 86.735 8.04418 87.6314C8.43776 88.4615 9.4987 89.5737 9.87516 89.5737C10.4399 89.5737 9.70404 87.1832 8.69444 85.6725C8.07841 84.7761 7.61639 84.5437 7.46238 85.0583Z" fill="#82E797"/>
<path d="M3.08167 87.5811C3.08167 88.1123 3.69769 89.4072 4.22816 89.9882C4.98109 90.8182 5.90513 91.1503 6.09336 90.6522C6.24737 90.2538 5.37466 88.6767 4.53618 87.8301C3.62925 86.9336 3.08167 86.834 3.08167 87.5811Z" fill="#82E797"/>
<path d="M14.2046 88.5121C13.7426 89.0268 15.026 90.5706 16.5661 91.3675C18.2944 92.2639 18.8933 92.0149 17.8837 90.8197C17.319 90.139 15.6934 88.8939 14.7864 88.4457C14.4955 88.2963 14.3586 88.3129 14.2046 88.5121Z" fill="#82E797"/>
<path d="M11.2442 92.6783C10.5426 93.3423 13.4174 95.5337 14.735 95.351C14.9575 95.3344 15.1628 95.185 15.197 95.0522C15.351 94.2554 11.7917 92.1305 11.2442 92.6783Z" fill="#82E797"/>
<path d="M7.0177 93.276C7.0177 94.0562 9.13958 95.5503 10.269 95.5503C10.6625 95.5503 10.7823 95.4839 10.7823 95.2183C10.7823 94.4712 8.54066 92.8941 7.47972 92.8941C7.12037 92.8941 7.0177 92.9772 7.0177 93.276Z" fill="#82E797"/>
<path d="M21.6995 93.6912C21.015 93.7742 20.7583 94.1561 21.1177 94.5379C22.0759 95.5671 26.0801 95.4509 25.5154 94.4051C25.2416 93.9402 23.0855 93.5252 21.6995 93.6912Z" fill="#82E797"/>
<path d="M29.8621 93.9568C27.4835 94.7039 27.2782 95.6833 29.537 95.5007C30.8375 95.4011 32.2577 94.6873 32.2577 94.1394C32.2577 93.8572 32.1209 93.8074 31.4022 93.7742C30.9401 93.7576 30.2385 93.8406 29.8621 93.9568Z" fill="#82E797"/>
<path d="M17.4215 96.3142C17.2333 96.364 17.1135 96.5632 17.1135 96.8122C17.1135 97.1442 17.2675 97.2936 17.8836 97.5593C18.9103 97.9909 20.1594 98.1237 20.9466 97.8747C21.6482 97.6589 21.6995 97.5427 21.2546 97.1608C20.5701 96.5632 18.3114 96.0652 17.4215 96.3142Z" fill="#82E797"/>
<path d="M147.034 45.2786C146.945 45.4291 146.435 46.3968 145.903 47.429C145.393 48.4827 144.506 49.7945 143.952 50.3751C142.843 51.5363 142.776 51.7513 143.375 52.1599C144.018 52.6115 144.639 53.7727 145.26 55.7941C146.08 58.4176 146.878 58.8906 147.41 57.0198C148.209 54.1168 148.608 53.4931 150.337 52.4825C150.67 52.2674 150.936 52.0094 150.936 51.8803C150.936 51.7513 150.448 51.1922 149.849 50.6331C148.696 49.5794 148.386 48.8913 148.142 46.7409C147.943 45.2141 147.477 44.5905 147.034 45.2786ZM147.366 48.9128C147.521 49.3429 147.943 50.1385 148.297 50.6976L148.985 51.6868L148.209 52.59C147.787 53.1061 147.211 53.9447 146.945 54.4823L146.435 55.45L146.058 54.3533C145.57 52.977 145.082 52.0524 144.639 51.7083C144.328 51.4503 144.373 51.3212 145.038 50.5686C145.459 50.117 146.014 49.2999 146.302 48.7838C146.878 47.7301 146.989 47.7516 147.366 48.9128Z" fill="#82E797"/>
<path d="M8.84729 44.3727C8.58971 44.6443 8.13894 45.5498 7.88135 46.3647C6.69003 49.6847 4.04981 52.2803 1.86036 52.2803C0.830025 52.2803 -0.264702 52.9745 0.0572765 53.4272C0.15387 53.6083 0.958816 53.9705 1.82816 54.2421C4.40399 55.0268 5.01575 55.8116 6.49685 60.0672C7.46278 62.7232 8.20333 63.5079 9.04048 62.693C9.33026 62.4515 9.62004 61.6668 9.74883 60.9726C10.264 58.0752 11.8417 56.0832 14.7395 54.6948C16.3816 53.9101 16.4138 53.1556 14.8683 52.2501C12.872 51.1032 12.1959 50.1374 11.1655 47.0891C10.1352 44.0709 9.65224 43.4974 8.84729 44.3727ZM11.1655 51.1938C11.5519 51.7672 12.2281 52.4916 12.6788 52.7934L13.4838 53.3367L11.8095 54.5138C10.908 55.1476 9.71663 56.3548 9.16927 57.1697L8.13894 58.709L7.2696 56.8679C6.78663 55.8719 5.98168 54.6647 5.46652 54.2119L4.53278 53.3367L6.04608 51.9483C6.91542 51.1938 7.97795 49.8356 8.46092 48.9301L9.33026 47.3305L9.90982 48.7189C10.2318 49.5036 10.7792 50.6203 11.1655 51.1938Z" fill="#82E797"/>
</svg>
