<svg width="250" height="162" viewBox="0 0 250 162" fill="none" xmlns="http://www.w3.org/2000/svg">
<path d="M86 0.000488281L101.438 23.4241L127.089 12.0652L127.412 40.1167L155.132 44.4289L140.238 68.2022L161.226 86.8164L135.844 98.7636L143.437 125.77L115.625 122.098L107.412 148.922L86 130.796L64.5883 148.922L56.375 122.098L28.563 125.77L36.1558 98.7636L10.7736 86.8164L31.7617 68.2022L16.868 44.4289L44.5879 40.1167L44.9113 12.0652L70.5622 23.4241L86 0.000488281Z" fill="white"/>
<path d="M11.1666 117.378C9.44253 119.133 7.15316 124.645 8.1424 124.645C8.67941 124.645 11.3079 121.409 12.0428 119.846C12.8624 118.119 13.0603 116.693 12.495 116.501C12.2972 116.419 11.7036 116.83 11.1666 117.378Z" fill="#82E797"/>
<path d="M13.4843 125.576C12.8625 126.179 12.4386 128.428 12.4386 131.087C12.4386 133.583 12.5799 134.241 13.1734 134.241C13.5974 134.241 14.6431 131.06 14.8693 129.086C15.0388 127.55 14.6714 125.412 14.2475 125.274C14.0496 125.22 13.7104 125.357 13.4843 125.576Z" fill="#82E797"/>
<path d="M4.80768 129.99C4.6381 130.182 4.3272 131.17 4.15762 132.129C3.90324 133.582 3.93151 134.213 4.3272 135.776C4.86421 137.887 5.42949 138.683 5.99476 138.134C6.41872 137.723 6.50351 131.636 6.13608 130.32C5.90997 129.497 5.3447 129.36 4.80768 129.99Z" fill="#82E797"/>
<path d="M17.6111 132.761C17.1306 133.967 19.2504 139.451 20.6636 140.712C21.1441 141.124 21.2006 141.124 21.3702 140.74C21.455 140.52 21.3419 139.314 21.0875 138.08C20.4092 134.516 18.2329 131.198 17.6111 132.761Z" fill="#82E797"/>
<path d="M12.3255 140.493C12.0994 141.178 12.5799 143.262 13.2865 144.743C13.9366 146.114 15.6889 147.951 16.3107 147.951C17.2434 147.951 16.0281 144.002 14.3605 141.507C13.343 140.026 12.5799 139.642 12.3255 140.493Z" fill="#82E797"/>
<path d="M5.08994 144.659C5.08994 145.536 6.10743 147.675 6.98361 148.635C8.22722 150.006 9.75346 150.554 10.0644 149.732C10.3187 149.074 8.87728 146.469 7.49236 145.07C5.99438 143.59 5.08994 143.425 5.08994 144.659Z" fill="#82E797"/>
<path d="M23.4617 146.197C22.6986 147.047 24.8184 149.597 27.3621 150.913C30.2168 152.394 31.206 151.983 29.5385 150.008C28.6057 148.884 25.9207 146.828 24.4227 146.087C23.9422 145.841 23.7161 145.868 23.4617 146.197Z" fill="#82E797"/>
<path d="M18.572 153.078C17.4132 154.175 22.1615 157.795 24.3378 157.493C24.7052 157.466 25.0444 157.219 25.1009 156.999C25.3553 155.683 19.4764 152.174 18.572 153.078Z" fill="#82E797"/>
<path d="M11.5912 154.065C11.5912 155.354 15.0959 157.822 16.9613 157.822C17.6114 157.822 17.8092 157.712 17.8092 157.273C17.8092 156.039 14.1067 153.435 12.3543 153.435C11.7608 153.435 11.5912 153.572 11.5912 154.065Z" fill="#82E797"/>
<path d="M35.8412 154.751C34.7106 154.889 34.2867 155.519 34.8802 156.15C36.463 157.85 43.0767 157.658 42.144 155.93C41.6918 155.163 38.1305 154.477 35.8412 154.751Z" fill="#82E797"/>
<path d="M49.3231 155.19C45.3945 156.424 45.0553 158.042 48.7861 157.74C50.9342 157.576 53.2801 156.397 53.2801 155.492C53.2801 155.026 53.054 154.943 51.8669 154.888C51.1038 154.861 49.9449 154.998 49.3231 155.19Z" fill="#82E797"/>
<path d="M28.7753 159.084C28.4644 159.166 28.2665 159.495 28.2665 159.906C28.2665 160.455 28.5209 160.701 29.5384 161.14C31.2342 161.853 33.2975 162.072 34.5976 161.661C35.7564 161.305 35.8412 161.113 35.1064 160.482C33.9758 159.495 30.245 158.672 28.7753 159.084Z" fill="#82E797"/>
<path d="M242.856 74.7882C242.709 75.0368 241.867 76.6351 240.988 78.34C240.146 80.0804 238.681 82.247 237.765 83.206C235.934 85.124 235.824 85.4792 236.813 86.154C237.875 86.8999 238.9 88.8179 239.926 92.1566C241.281 96.4898 242.599 97.2712 243.478 94.1811C244.797 89.3862 245.456 88.3561 248.312 86.6868C248.862 86.3316 249.301 85.9054 249.301 85.6923C249.301 85.4792 248.495 84.5557 247.507 83.6322C245.602 81.8918 245.09 80.7553 244.687 77.2034C244.357 74.6816 243.588 73.6516 242.856 74.7882ZM243.405 80.7908C243.661 81.5011 244.357 82.8153 244.943 83.7388L246.078 85.3726L244.797 86.8644C244.101 87.7168 243.149 89.102 242.709 89.99L241.867 91.5883L241.244 89.7769C240.438 87.5037 239.633 85.9764 238.9 85.4081C238.388 84.9819 238.461 84.7688 239.56 83.5257C240.255 82.7798 241.171 81.4301 241.647 80.5777C242.599 78.8373 242.782 78.8728 243.405 80.7908Z" fill="#82E797"/>
<path d="M14.6131 73.2919C14.1876 73.7405 13.4431 75.236 13.0176 76.582C11.0499 82.0657 6.68908 86.3529 3.07275 86.3529C1.37095 86.3529 -0.437209 87.4994 0.0946037 88.2472C0.254148 88.5463 1.58368 89.1445 3.01957 89.5932C7.27407 90.8893 8.28452 92.1854 10.7309 99.2145C12.3263 103.601 13.5495 104.897 14.9322 103.552C15.4108 103.153 15.8894 101.857 16.1022 100.71C16.9531 95.9243 19.5589 92.6341 24.3453 90.341C27.0575 89.0448 27.1107 87.7985 24.558 86.303C21.2607 84.4087 20.1439 82.8134 18.4421 77.7785C16.7403 72.7933 15.9426 71.8462 14.6131 73.2919ZM18.4421 84.5582C19.0803 85.5054 20.1971 86.7018 20.9417 87.2003L22.2712 88.0976L19.5058 90.0418C18.0167 91.0887 16.049 93.0828 15.1449 94.4287L13.4431 96.9712L12.0072 93.9302C11.2095 92.2851 9.87996 90.2911 9.02906 89.5433L7.4868 88.0976L9.98632 85.8045C11.4222 84.5582 13.1772 82.3149 13.9749 80.8194L15.4108 78.1773L16.3681 80.4704C16.8999 81.7666 17.804 83.611 18.4421 84.5582Z" fill="#82E797"/>
</svg>
