<svg width="778" height="768" viewBox="0 0 778 768" fill="none" xmlns="http://www.w3.org/2000/svg">
<g clip-path="url(#clip0_504_28522)">
<rect width="778" height="768" transform="matrix(-1 0 0 1 778 0)" fill="url(#paint0_linear_504_28522)"/>
<path opacity="0.715466" fill-rule="evenodd" clip-rule="evenodd" d="M574.686 337.005C504.915 336.36 391.945 403.047 348.227 416.496C301.898 430.748 167 450.387 167 450.387C167 450.387 560.004 573.443 690.34 572.595C820.677 571.747 809.762 424.156 809.762 424.156C809.762 424.156 641.747 337.624 574.686 337.005Z" fill="#FFE2D3"/>
<path fill-rule="evenodd" clip-rule="evenodd" d="M773.031 442.992C773.031 442.992 917.914 885.725 773.031 885.725C682.561 885.725 -246.491 954.466 -398.972 742.511C-401.464 739.047 -404 425.664 -347.402 441.602C-176.811 489.643 -89.5677 450.484 9.43716 425.852C108.442 401.219 121.087 333.579 243.846 308.886C346.542 288.229 409.335 350.11 561.591 417.016C622.422 443.747 773.031 442.992 773.031 442.992Z" fill="url(#paint1_linear_504_28522)"/>
<path fill-rule="evenodd" clip-rule="evenodd" d="M42.1601 143.292C27.5837 143.292 14.4813 149.41 5.43584 159.143C-5.61346 149.297 -20.3186 143.292 -36.4613 143.292C-70.7852 143.292 -98.6102 170.442 -98.6102 203.933C-98.6102 205.55 -98.5453 207.152 -98.418 208.736C-119.749 218.343 -134.552 239.397 -134.552 263.825C-134.552 297.316 -106.727 324.466 -72.4027 324.466C-52.3804 324.466 -34.5695 315.227 -23.2032 300.881C-11.9867 315.131 6.73441 324.466 27.9348 324.466C54.2648 324.466 76.7705 310.067 85.8254 289.736C87.7161 289.928 89.636 290.027 91.5799 290.027C121.355 290.027 145.492 266.899 145.492 238.37C145.492 209.84 121.355 186.713 91.5799 186.713C91.5083 186.713 91.4368 186.713 91.3654 186.713C89.0293 162.358 67.8912 143.292 42.1601 143.292Z" fill="url(#paint2_linear_504_28522)"/>
<path fill-rule="evenodd" clip-rule="evenodd" d="M477.373 83.1299C470.873 83.1299 465.03 85.8582 460.997 90.1981C456.07 85.8077 449.513 83.1299 442.314 83.1299C427.009 83.1299 414.601 95.2364 414.601 110.171C414.601 110.892 414.63 111.606 414.687 112.313C405.175 116.596 398.574 125.985 398.574 136.878C398.574 151.812 410.982 163.918 426.287 163.918C435.216 163.918 443.158 159.799 448.226 153.401C453.228 159.755 461.576 163.918 471.029 163.918C482.77 163.918 492.805 157.498 496.843 148.432C497.686 148.518 498.542 148.562 499.409 148.562C512.687 148.562 523.45 138.249 523.45 125.527C523.45 112.806 512.687 102.493 499.409 102.493L499.314 102.493C498.273 91.6321 488.847 83.1299 477.373 83.1299Z" fill="url(#paint3_linear_504_28522)"/>
<path fill-rule="evenodd" clip-rule="evenodd" d="M194.71 241.262C187.324 240.224 180.25 242.391 174.974 246.678C170.077 240.903 163.054 236.813 154.875 235.663C137.485 233.219 121.455 244.993 119.07 261.962C118.955 262.78 118.874 263.597 118.825 264.409C107.334 267.756 98.3343 277.37 96.5949 289.746C94.2102 306.714 106.374 322.451 123.765 324.895C133.909 326.321 143.59 322.908 150.371 316.449C155.039 324.468 163.859 330.53 174.6 332.04C187.94 333.915 200.368 328.222 206.403 318.566C207.348 318.798 208.314 318.985 209.299 319.124C224.385 321.244 238.261 311.245 240.292 296.791C242.323 282.336 231.741 268.9 216.656 266.78L216.548 266.765C217.099 254.259 207.747 243.094 194.71 241.262Z" fill="url(#paint4_linear_504_28522)"/>
<path fill-rule="evenodd" clip-rule="evenodd" d="M627.181 196.95C638.721 196.95 649.095 201.794 656.257 209.5C665.005 201.704 676.647 196.95 689.428 196.95C716.603 196.95 738.633 218.445 738.633 244.961C738.633 246.241 738.582 247.509 738.481 248.763C755.369 256.369 767.089 273.038 767.089 292.378C767.089 318.894 745.059 340.389 717.884 340.389C702.032 340.389 687.931 333.075 678.932 321.717C670.052 332.999 655.23 340.39 638.445 340.39C617.599 340.39 599.781 328.99 592.612 312.894C591.114 313.046 589.594 313.124 588.054 313.124C564.481 313.124 545.371 294.813 545.371 272.226C545.371 249.638 564.481 231.328 588.054 231.328C588.111 231.328 588.167 231.328 588.224 231.328C590.073 212.045 606.808 196.95 627.181 196.95Z" fill="url(#paint5_linear_504_28522)"/>
<path fill-rule="evenodd" clip-rule="evenodd" d="M471.737 686.937L767.067 697.379L741.842 667.824L484.154 675.841L471.737 686.937Z" fill="url(#paint6_linear_504_28522)" fill-opacity="0.21" style="mix-blend-mode:multiply"/>
<ellipse cx="31.8561" cy="3.82207" rx="31.8561" ry="3.82207" transform="matrix(-1 0 0 1 421.712 673.218)" fill="url(#paint7_linear_504_28522)" fill-opacity="0.21" style="mix-blend-mode:multiply"/>
<path fill-rule="evenodd" clip-rule="evenodd" d="M560.079 611.049C560.079 611.049 567.631 622.783 565.113 638.123C562.596 653.463 562.911 676.049 562.911 676.049H554.567L544.151 607.669C544.151 607.669 555.98 603.198 560.079 604.068C564.178 604.938 560.079 611.049 560.079 611.049Z" fill="#9EA4B8"/>
<path fill-rule="evenodd" clip-rule="evenodd" d="M515.906 612.993C515.906 612.993 520.624 626.126 514.721 640.506C508.818 654.886 504.043 676.964 504.043 676.964L495.913 675.087L501.147 606.117L522.033 601.544L515.906 612.993Z" fill="#9EA4B8"/>
<path fill-rule="evenodd" clip-rule="evenodd" d="M563.154 675.765L552.945 672.684L546.08 675.765L536.398 676.773C534.857 676.934 533.568 678.015 533.142 679.505V679.505C532.218 682.739 534.645 685.957 538.008 685.957H555.954C559.931 685.957 563.154 682.733 563.154 678.757V675.765Z" fill="#02076F"/>
<path fill-rule="evenodd" clip-rule="evenodd" d="M504.539 675.765L494.33 672.684L487.465 675.765L477.783 676.773C476.241 676.934 474.952 678.015 474.527 679.505V679.505C473.603 682.739 476.03 685.957 479.393 685.957H497.339C501.316 685.957 504.539 682.733 504.539 678.757V675.765Z" fill="#02076F"/>
<path fill-rule="evenodd" clip-rule="evenodd" d="M565.702 610.43V541.993H504.6L496.757 610.43H524.647L533.235 575.194L539.286 610.43H565.702Z" fill="#02076F"/>
<path d="M564.107 522.654C576.499 508.203 576.871 508.54 582.052 499.745C584.526 495.547 587.52 492.15 587.291 491.71C583.893 485.198 573.846 478.584 557.704 461.73L564.583 444.963C587.422 462.67 595.258 476.858 599.251 484.511C600.219 486.366 601.934 489.738 601.829 492.046C601.368 502.213 589.059 515.197 565.907 530.79L564.107 522.654Z" fill="#9EA4B8"/>
<path fill-rule="evenodd" clip-rule="evenodd" d="M435.921 453.589C435.921 453.589 427.603 443.571 426.842 440.277C425.024 438.139 423.643 442.539 423.643 442.539C423.643 442.539 428.687 463.865 433.712 467.263C438.738 470.662 438.738 467.263 438.738 467.263L435.921 453.589Z" fill="#9EA4B8"/>
<path d="M381.185 669.539C366.717 649.249 373.286 608.079 407.057 566.475C440.828 524.871 476.324 480.228 433.667 452.199C420.212 443.359 396.286 438.449 377.362 448.604" stroke="#FC6F29" stroke-width="1.8"/>
<path fill-rule="evenodd" clip-rule="evenodd" d="M438.498 469.655C441.493 470.372 443.136 459.068 440.141 456.999C437.145 454.93 438.565 446.188 436.033 446.578C433.5 446.968 434.736 450.321 434.613 452.712C434.489 455.104 435.502 468.938 438.498 469.655Z" fill="#9EA4B8"/>
<path d="M441.425 465.048C456.3 476.928 455.976 477.311 464.946 482.182C469.228 484.508 472.728 487.382 473.159 487.138C479.549 483.514 485.808 473.243 502.089 456.522L519.085 462.812C502.186 486.255 488.28 494.581 480.771 498.839C470.938 504.415 453.471 494.855 433.357 467.13L441.425 465.048Z" fill="#9EA4B8"/>
<path fill-rule="evenodd" clip-rule="evenodd" d="M532.562 386.312C532.562 386.312 532.834 391.234 529.382 393.973C525.528 397.032 521.214 400.567 520.219 401.83C518.332 404.223 522.106 404.223 522.106 404.223L520.219 419.68L535.917 426.705L532.562 439.79H551.369L553.737 426.705C553.737 426.705 548.262 402.132 544.813 395.553C540.14 386.638 532.562 386.313 532.562 386.312Z" fill="#9EA4B8"/>
<ellipse cx="21.4152" cy="27.073" rx="21.4152" ry="27.073" transform="matrix(-1 0 0 1 577.171 373.185)" fill="#02076F"/>
<ellipse cx="8.91971" cy="8.28115" rx="8.91971" ry="8.28115" transform="matrix(-1 0 0 1 554.234 370)" fill="#02076F"/>
<ellipse cx="5.7341" cy="5.3236" rx="5.7341" ry="5.3236" transform="matrix(-1 0 0 1 560.606 370)" fill="#02076F"/>
<ellipse cx="8.91971" cy="8.28115" rx="8.91971" ry="8.28115" transform="matrix(-1 0 0 1 573.348 375.096)" fill="#02076F"/>
<ellipse cx="8.91971" cy="8.28115" rx="8.91971" ry="8.28115" transform="matrix(-1 0 0 1 578.445 384.014)" fill="#02076F"/>
<ellipse cx="4.45986" cy="4.14058" rx="4.45986" ry="4.14058" transform="matrix(-1 0 0 1 566.977 372.548)" fill="#02076F"/>
<ellipse cx="4.45986" cy="4.14058" rx="4.45986" ry="4.14058" transform="matrix(-1 0 0 1 541.491 375.096)" fill="#02076F"/>
<ellipse cx="4.45986" cy="4.14058" rx="4.45986" ry="4.14058" transform="matrix(-1 0 0 1 538.943 381.466)" fill="#02076F"/>
<ellipse cx="5.09698" cy="5.73311" rx="5.09698" ry="5.73311" transform="matrix(-1 0 0 1 540.217 400.575)" fill="#9EA4B8"/>
<path fill-rule="evenodd" clip-rule="evenodd" d="M593.268 466.061L566.156 440.924C566.156 440.924 553.109 436.248 544.621 436.248C540.489 436.248 546.467 436.248 532.076 436.248C526.757 436.248 511.563 440.924 511.563 440.924L491.533 466.061L504.247 484.11L518.154 466.061L502.643 552.216C502.643 552.216 518.391 557.464 532.076 557.464C545.761 557.464 566.156 552.368 566.156 552.368V472.199L576.171 484.11L593.268 466.061Z" fill="white"/>
<g style="mix-blend-mode:multiply" opacity="0.195312">
<path fill-rule="evenodd" clip-rule="evenodd" d="M539.322 610.525L537.815 561.727L533.344 575.279L539.322 610.525Z" fill="#3B3C45"/>
</g>
<g style="mix-blend-mode:multiply" opacity="0.549819">
<path fill-rule="evenodd" clip-rule="evenodd" d="M508.818 517.442L525.18 461.66C525.18 461.66 518.46 463.76 518.089 466.454C517.717 469.148 508.818 517.442 508.818 517.442Z" fill="#DEEAF4"/>
</g>
<ellipse cx="4.45986" cy="11.4662" rx="4.45986" ry="11.4662" transform="matrix(-1 0 0 1 369.469 654.106)" fill="#02076F"/>
<rect width="28.0334" height="16.5623" transform="matrix(-1 0 0 1 393.679 657.928)" fill="#02076F"/>
<path fill-rule="evenodd" clip-rule="evenodd" d="M384.76 657.928H373.292C373.292 657.928 370.743 660.666 370.743 666.092C370.743 671.518 373.292 674.491 373.292 674.491H384.76C384.76 674.491 382.211 670.878 382.211 666.562C382.211 662.245 384.76 657.928 384.76 657.928Z" fill="#FF5B10"/>
<ellipse cx="4.45986" cy="12.7402" rx="4.45986" ry="12.7402" transform="matrix(-1 0 0 1 397.503 652.833)" fill="#737980"/>
<path fill-rule="evenodd" clip-rule="evenodd" d="M218.618 59.5502L231.234 83.2765L247.3 74.7342L218.618 59.5502Z" fill="#FF5B10"/>
<path fill-rule="evenodd" clip-rule="evenodd" d="M216.457 60.6998L229.073 84.4261L213.007 92.9685L216.457 60.6998Z" fill="#737980"/>
<path fill-rule="evenodd" clip-rule="evenodd" d="M245.203 109.548L232.588 85.8214L248.654 77.279L245.203 109.548Z" fill="#737980"/>
<path fill-rule="evenodd" clip-rule="evenodd" d="M243.041 110.698L230.426 86.9715L214.36 95.5139L243.041 110.698Z" fill="#FF5B10"/>
<path fill-rule="evenodd" clip-rule="evenodd" d="M249.936 75.7843L257.927 68.146L250.651 64.7532L249.936 75.7843Z" fill="#FF5B10"/>
<path fill-rule="evenodd" clip-rule="evenodd" d="M250.541 76.8251L261.479 75.2308L259.673 83.0533L250.541 76.8251Z" fill="#737980"/>
<path fill-rule="evenodd" clip-rule="evenodd" d="M212.969 94.9923L205.112 102.769L212.446 106.034L212.969 94.9923Z" fill="#FF5B10"/>
<path fill-rule="evenodd" clip-rule="evenodd" d="M212.347 93.9625L201.437 95.7474L203.106 87.8947L212.347 93.9625Z" fill="#737980"/>
<path opacity="0.7" d="M244.242 111.479C244.242 115.865 254.918 135.011 227.119 159.309C199.319 183.607 213.501 215.362 227.119 225.988" stroke="#FC6F29" stroke-width="3.24" stroke-linecap="round" stroke-linejoin="round"/>
<path fill-rule="evenodd" clip-rule="evenodd" d="M245.481 130.965L251.291 140.369L256.123 133.957L245.481 130.965Z" fill="#FF5B10"/>
<path fill-rule="evenodd" clip-rule="evenodd" d="M245.732 132.514L235.04 129.708L239.759 123.213L245.732 132.514Z" fill="#737980"/>
<path fill-rule="evenodd" clip-rule="evenodd" d="M232.508 154.573L233.223 165.605L240.499 162.212L232.508 154.573Z" fill="#737980"/>
<path fill-rule="evenodd" clip-rule="evenodd" d="M232.188 154.79L224.332 147.014L231.666 143.748L232.188 154.79Z" fill="#FF5B10"/>
<path fill-rule="evenodd" clip-rule="evenodd" d="M212.608 180.458L221.04 187.606L223.654 180.015L212.608 180.458Z" fill="#FF5B10"/>
<path fill-rule="evenodd" clip-rule="evenodd" d="M213.006 180.796L201.964 180.274L205.229 172.94L213.006 180.796Z" fill="#737980"/>
<path fill-rule="evenodd" clip-rule="evenodd" d="M215.922 210.843L226.887 212.246L224.944 204.456L215.922 210.843Z" fill="#737980"/>
<path fill-rule="evenodd" clip-rule="evenodd" d="M215.708 211.258L205.975 216.497L204.996 208.529L215.708 211.258Z" fill="#FF5B10"/>
<path d="M323.523 179.415C306.786 178.436 281.128 168.651 275.01 136.86C268.891 105.069 252.514 89.5947 232.877 85.4448" stroke="#FC6F29" stroke-width="1.62"/>
</g>
<defs>
<linearGradient id="paint0_linear_504_28522" x1="389" y1="768" x2="389" y2="-4.57764e-05" gradientUnits="userSpaceOnUse">
<stop offset="0.346974" stop-color="white"/>
<stop offset="1" stop-color="#F6F4F2"/>
</linearGradient>
<linearGradient id="paint1_linear_504_28522" x1="466.067" y1="354.007" x2="466.067" y2="649.716" gradientUnits="userSpaceOnUse">
<stop stop-color="#FFEFE7"/>
<stop offset="1" stop-color="#FFFBF9"/>
</linearGradient>
<linearGradient id="paint2_linear_504_28522" x1="95.5421" y1="207.922" x2="95.5421" y2="324.466" gradientUnits="userSpaceOnUse">
<stop stop-color="white"/>
<stop offset="1" stop-color="white" stop-opacity="0.158486"/>
</linearGradient>
<linearGradient id="paint3_linear_504_28522" x1="501.176" y1="111.949" x2="501.176" y2="163.918" gradientUnits="userSpaceOnUse">
<stop stop-color="white"/>
<stop offset="1" stop-color="white" stop-opacity="0.158486"/>
</linearGradient>
<linearGradient id="paint4_linear_504_28522" x1="217.153" y1="277.807" x2="208.854" y2="336.854" gradientUnits="userSpaceOnUse">
<stop stop-color="white"/>
<stop offset="1" stop-color="white" stop-opacity="0.158486"/>
</linearGradient>
<linearGradient id="paint5_linear_504_28522" x1="584.917" y1="248.119" x2="584.917" y2="340.39" gradientUnits="userSpaceOnUse">
<stop stop-color="white"/>
<stop offset="1" stop-color="white" stop-opacity="0.158486"/>
</linearGradient>
<linearGradient id="paint6_linear_504_28522" x1="312.447" y1="726.038" x2="311.014" y2="661.6" gradientUnits="userSpaceOnUse">
<stop stop-color="#536DB5" stop-opacity="0.01"/>
<stop offset="1" stop-color="#0E284B"/>
</linearGradient>
<linearGradient id="paint7_linear_504_28522" x1="33.3974" y1="11.8774" x2="35.0906" y2="-5.1957" gradientUnits="userSpaceOnUse">
<stop stop-color="#536DB5" stop-opacity="0.01"/>
<stop offset="1" stop-color="#0E284B"/>
</linearGradient>
<clipPath id="clip0_504_28522">
<rect width="778" height="768" fill="white" transform="matrix(-1 0 0 1 778 0)"/>
</clipPath>
</defs>
</svg>
