<svg width="13" height="18" viewBox="0 0 13 18" fill="none" xmlns="http://www.w3.org/2000/svg">
<path d="M5.64286 3.9H7.35714V2.2H5.64286V3.9ZM6.5 9C5.41429 9 4.37857 8.77688 3.39286 8.33063C2.40714 7.88438 1.44286 7.385 0.5 6.8325V5.6C0.5 5.1325 0.667857 4.73229 1.00357 4.39938C1.33929 4.06646 1.74286 3.9 2.21429 3.9H3.92857V1.35C3.92857 1.10917 4.01071 0.907292 4.175 0.744375C4.33929 0.581458 4.54286 0.5 4.78571 0.5H8.21429C8.45714 0.5 8.66071 0.581458 8.825 0.744375C8.98929 0.907292 9.07143 1.10917 9.07143 1.35V3.9H10.7857C11.2571 3.9 11.6607 4.06646 11.9964 4.39938C12.3321 4.73229 12.5 5.1325 12.5 5.6V6.8325C11.5571 7.385 10.5929 7.88438 9.60714 8.33063C8.62143 8.77688 7.58571 9 6.5 9ZM2.21429 16.65C1.74286 16.65 1.33929 16.4835 1.00357 16.1506C0.667857 15.8177 0.5 15.4175 0.5 14.95V8.745C1.3 9.22667 2.125 9.6375 2.975 9.9775C3.825 10.3175 4.71429 10.5442 5.64286 10.6575V10.7C5.64286 10.9408 5.725 11.1427 5.88929 11.3056C6.05357 11.4685 6.25714 11.55 6.5 11.55C6.74286 11.55 6.94643 11.4685 7.11071 11.3056C7.275 11.1427 7.35714 10.9408 7.35714 10.7V10.6575C8.28571 10.5442 9.175 10.3175 10.025 9.9775C10.875 9.6375 11.7 9.22667 12.5 8.745V14.95C12.5 15.4175 12.3321 15.8177 11.9964 16.1506C11.6607 16.4835 11.2571 16.65 10.7857 16.65C10.7857 16.8908 10.7036 17.0927 10.5393 17.2556C10.375 17.4185 10.1714 17.5 9.92857 17.5C9.7 17.5 9.53929 17.3973 9.44643 17.1919C9.35357 16.9865 9.22857 16.8058 9.07143 16.65H3.92857C3.92857 16.8908 3.84643 17.0927 3.68214 17.2556C3.51786 17.4185 3.31429 17.5 3.07143 17.5C2.84286 17.5 2.68214 17.3973 2.58929 17.1919C2.49643 16.9865 2.37143 16.8058 2.21429 16.65Z" fill="#737980"/>
</svg>
