<svg width="32" height="33" viewBox="0 0 32 33" fill="none" xmlns="http://www.w3.org/2000/svg">
<path d="M16 0.701172C7.16444 0.701172 0 7.91908 0 16.8206C0 25.7221 7.16444 32.94 16 32.94C17.4756 32.94 18.6667 31.74 18.6667 30.2534C18.6667 29.5549 18.4 28.928 17.9733 28.4445C17.5644 27.9788 17.2978 27.3519 17.2978 26.6713C17.2978 25.1848 18.4889 23.9848 19.9644 23.9848H23.1111C28.0178 23.9848 32 19.9728 32 15.0295C32 7.11311 24.8356 0.701172 16 0.701172ZM6.22222 16.8206C4.74667 16.8206 3.55556 15.6206 3.55556 14.134C3.55556 12.6474 4.74667 11.4474 6.22222 11.4474C7.69778 11.4474 8.88889 12.6474 8.88889 14.134C8.88889 15.6206 7.69778 16.8206 6.22222 16.8206ZM11.5556 9.6564C10.08 9.6564 8.88889 8.4564 8.88889 6.96983C8.88889 5.48326 10.08 4.28326 11.5556 4.28326C13.0311 4.28326 14.2222 5.48326 14.2222 6.96983C14.2222 8.4564 13.0311 9.6564 11.5556 9.6564ZM20.4444 9.6564C18.9689 9.6564 17.7778 8.4564 17.7778 6.96983C17.7778 5.48326 18.9689 4.28326 20.4444 4.28326C21.92 4.28326 23.1111 5.48326 23.1111 6.96983C23.1111 8.4564 21.92 9.6564 20.4444 9.6564ZM25.7778 16.8206C24.3022 16.8206 23.1111 15.6206 23.1111 14.134C23.1111 12.6474 24.3022 11.4474 25.7778 11.4474C27.2533 11.4474 28.4444 12.6474 28.4444 14.134C28.4444 15.6206 27.2533 16.8206 25.7778 16.8206Z" fill="#CBD0D5"/>
</svg>
