<svg width="17" height="9" viewBox="0 0 17 9" fill="none" xmlns="http://www.w3.org/2000/svg">
<path d="M13.0496 0.262055L16.2454 3.40616C16.3341 3.49349 16.3969 3.58811 16.4336 3.69C16.4709 3.79189 16.4895 3.90106 16.4895 4.01751C16.4895 4.13396 16.4709 4.24313 16.4336 4.34502C16.3969 4.44692 16.3341 4.54153 16.2454 4.62886L13.0496 7.77297C12.8868 7.93309 12.6832 8.01693 12.4388 8.0245C12.195 8.03149 11.9843 7.94764 11.8067 7.77297C11.6292 7.61285 11.5369 7.41285 11.5298 7.17297C11.5221 6.9325 11.607 6.72494 11.7845 6.55026L13.4712 4.89087L0.887676 4.89087C0.636153 4.89087 0.425466 4.80732 0.255614 4.64022C0.0851698 4.47253 -5.30771e-05 4.26496 -5.30554e-05 4.01751C-5.30338e-05 3.77006 0.0851699 3.56278 0.255614 3.39568C0.425466 3.22799 0.636153 3.14415 0.887676 3.14415L13.4712 3.14415L11.7845 1.48476C11.6218 1.32464 11.5369 1.12086 11.5298 0.873405C11.5221 0.625952 11.607 0.422171 11.7845 0.262055C11.9473 0.087382 12.1544 4.349e-05 12.406 4.3512e-05C12.6575 4.3534e-05 12.872 0.0873821 13.0496 0.262055Z" fill="#B0B8BF"/>
</svg>
