<svg width="21" height="21" viewBox="0 0 21 21" fill="none" xmlns="http://www.w3.org/2000/svg">
<path d="M10.5 20.25C8.80303 20.25 7.24242 19.8636 5.81818 19.0909C4.39394 18.3182 3.22727 17.2879 2.31818 16V17.5227C2.31818 17.7803 2.23106 17.9962 2.05682 18.1705C1.88258 18.3447 1.66667 18.4318 1.40909 18.4318C1.15152 18.4318 0.935606 18.3447 0.761364 18.1705C0.587121 17.9962 0.5 17.7803 0.5 17.5227V13.8864C0.5 13.6288 0.587121 13.4129 0.761364 13.2386C0.935606 13.0644 1.15152 12.9773 1.40909 12.9773H5.04545C5.30303 12.9773 5.51894 13.0644 5.69318 13.2386C5.86742 13.4129 5.95455 13.6288 5.95455 13.8864C5.95455 14.1439 5.86742 14.3598 5.69318 14.5341C5.51894 14.7083 5.30303 14.7955 5.04545 14.7955H3.70455C4.43182 15.8864 5.39015 16.7651 6.57955 17.4318C7.76894 18.0985 9.07576 18.4318 10.5 18.4318C12.6364 18.4318 14.4735 17.7197 16.0114 16.2955C17.5492 14.8712 18.4242 13.1212 18.6364 11.0455C18.6667 10.803 18.7727 10.6098 18.9545 10.4659C19.1364 10.322 19.3485 10.25 19.5909 10.25C19.8485 10.25 20.0682 10.3295 20.25 10.4886C20.4318 10.6477 20.5076 10.8409 20.4773 11.0682C20.3712 12.3561 20.0379 13.5568 19.4773 14.6705C18.9167 15.7841 18.1894 16.7538 17.2955 17.5795C16.4015 18.4053 15.375 19.0568 14.2159 19.5341C13.0568 20.0114 11.8182 20.25 10.5 20.25ZM10.5 2.06818C8.36364 2.06818 6.52651 2.7803 4.98864 4.20455C3.45076 5.62879 2.57576 7.37879 2.36364 9.45454C2.33333 9.69697 2.22727 9.89015 2.04545 10.0341C1.86364 10.178 1.65152 10.25 1.40909 10.25C1.15152 10.25 0.931818 10.1705 0.75 10.0114C0.568182 9.85227 0.492424 9.65909 0.522727 9.43182C0.628788 8.14394 0.962121 6.94318 1.52273 5.82955C2.08333 4.71591 2.81061 3.74621 3.70455 2.92045C4.59848 2.0947 5.625 1.44318 6.78409 0.965909C7.94318 0.488636 9.18182 0.25 10.5 0.25C12.197 0.25 13.7576 0.636364 15.1818 1.40909C16.6061 2.18182 17.7727 3.21212 18.6818 4.5V2.97727C18.6818 2.7197 18.7689 2.50379 18.9432 2.32955C19.1174 2.1553 19.3333 2.06818 19.5909 2.06818C19.8485 2.06818 20.0644 2.1553 20.2386 2.32955C20.4129 2.50379 20.5 2.7197 20.5 2.97727V6.61364C20.5 6.87121 20.4129 7.08712 20.2386 7.26136C20.0644 7.43561 19.8485 7.52273 19.5909 7.52273H15.9545C15.697 7.52273 15.4811 7.43561 15.3068 7.26136C15.1326 7.08712 15.0455 6.87121 15.0455 6.61364C15.0455 6.35606 15.1326 6.14015 15.3068 5.96591C15.4811 5.79167 15.697 5.70455 15.9545 5.70455H17.2955C16.5682 4.61364 15.6098 3.73485 14.4205 3.06818C13.2311 2.40152 11.9242 2.06818 10.5 2.06818Z" fill="#DEE2E6"/>
</svg>
