<svg width="22" height="23" viewBox="0 0 22 23" fill="none" xmlns="http://www.w3.org/2000/svg">
<path fill-rule="evenodd" clip-rule="evenodd" d="M17.046 9.6026C17.3388 9.89549 17.3388 10.3704 17.046 10.6633L11.7295 15.9797C11.4367 16.2726 10.9618 16.2726 10.6689 15.9797L5.35248 10.6633C5.05959 10.3704 5.05959 9.89549 5.35248 9.6026C5.64537 9.3097 6.12025 9.3097 6.41314 9.6026L11.1992 14.3887L15.9853 9.6026C16.2782 9.3097 16.7531 9.3097 17.046 9.6026Z" fill="#FF5B10"/>
<path fill-rule="evenodd" clip-rule="evenodd" d="M11.25 2.25C6.14137 2.25 2 6.39137 2 11.5C2 16.6086 6.14136 20.75 11.25 20.75C16.3586 20.75 20.5 16.6086 20.5 11.5C20.5 6.39137 16.3586 2.25 11.25 2.25ZM0.499998 11.5C0.499999 5.56294 5.31294 0.750001 11.25 0.750002C17.1871 0.750003 22 5.56294 22 11.5C22 17.4371 17.1871 22.25 11.25 22.25C5.31294 22.25 0.499997 17.4371 0.499998 11.5Z" fill="#FF5B10"/>
</svg>
