<svg width="17" height="15" viewBox="0 0 17 15" fill="none" xmlns="http://www.w3.org/2000/svg">
<path d="M12.3172 7.75109C12.1397 7.57642 12.0509 7.36885 12.0509 7.12838C12.0509 6.8885 12.1323 6.6885 12.295 6.52838L13.9817 4.869H1.39817C1.14665 4.869 0.935962 4.78515 0.76611 4.61747C0.595666 4.45036 0.510444 4.24309 0.510444 3.99563C0.510444 3.74818 0.595666 3.54061 0.76611 3.37293C0.935962 3.20582 1.14665 3.12227 1.39817 3.12227H13.9817L12.295 1.46288C12.1323 1.30277 12.0509 1.10247 12.0509 0.862009C12.0509 0.622125 12.1397 0.414847 12.3172 0.240175C12.48 0.0800583 12.6871 0 12.9386 0C13.1902 0 13.3973 0.0800583 13.5601 0.240175L16.7559 3.38428C16.8446 3.47162 16.9077 3.56623 16.945 3.66812C16.9817 3.77001 17 3.87918 17 3.99563C17 4.11208 16.9817 4.22125 16.945 4.32314C16.9077 4.42504 16.8446 4.51965 16.7559 4.60699L13.5601 7.75109C13.3825 7.92576 13.1718 8.00932 12.928 8.00175C12.6836 7.99476 12.48 7.91121 12.3172 7.75109ZM3.43995 14.738L0.244125 11.5939C0.155353 11.5066 0.0926196 11.4119 0.0559269 11.31C0.0186423 11.2082 0 11.099 0 10.9825C0 10.8661 0.0186423 10.7569 0.0559269 10.655C0.0926196 10.5531 0.155353 10.4585 0.244125 10.3712L3.43995 7.22707C3.6027 7.06696 3.80628 6.98311 4.0507 6.97555C4.29453 6.96856 4.50522 7.0524 4.68277 7.22707C4.86031 7.38719 4.95264 7.58719 4.95974 7.82707C4.96743 8.06754 4.88251 8.27511 4.70496 8.44978L3.01828 10.1092H15.6018C15.8533 10.1092 16.064 10.1927 16.2339 10.3598C16.4043 10.5275 16.4896 10.7351 16.4896 10.9825C16.4896 11.23 16.4043 11.4373 16.2339 11.6044C16.064 11.7721 15.8533 11.8559 15.6018 11.8559H3.01828L4.70496 13.5153C4.86771 13.6754 4.95264 13.8792 4.95974 14.1266C4.96743 14.3741 4.88251 14.5779 4.70496 14.738C4.54221 14.9127 4.33507 15 4.08355 15C3.83203 15 3.61749 14.9127 3.43995 14.738Z" fill="#B0B8BF"/>
</svg>
