<svg width="50" height="50" viewBox="0 0 50 50" fill="none" xmlns="http://www.w3.org/2000/svg">
<path d="M21.5278 1.84774e-06C22.2902 1.84774e-06 22.9289 0.258339 23.4438 0.775005C23.9604 1.28988 24.2187 1.92853 24.2187 2.69098C24.2187 3.45342 23.9604 4.09208 23.4438 4.60695C22.9289 5.12361 22.2902 5.38195 21.5278 5.38195H5.38195L5.38195 43.0556H21.5278C22.2902 43.0556 22.9289 43.3139 23.4438 43.8306C23.9604 44.3454 24.2188 44.9841 24.2188 45.7465C24.2188 46.509 23.9604 47.1485 23.4438 47.6652C22.9289 48.1801 22.2902 48.4375 21.5278 48.4375H5.38195C3.90191 48.4375 2.63446 47.911 1.5796 46.8579C0.526536 45.803 9.23872e-07 44.5356 9.23872e-07 43.0556L9.23872e-07 5.38195C9.23872e-07 3.90191 0.526536 2.63447 1.5796 1.5796C2.63446 0.526537 3.90191 1.84774e-06 5.38195 1.84774e-06H21.5278Z" fill="black"/>
<path d="M33.5694 33.7315C33.5694 34.4724 33.8161 35.1344 34.3095 35.7174C34.8028 36.2108 35.4083 36.4799 36.1259 36.5247C36.8435 36.5696 37.4714 36.3229 38.0095 35.7847L47.697 26.0972C47.9661 25.8281 48.1572 25.5366 48.2702 25.2227C48.3814 24.9087 48.4371 24.5723 48.4371 24.2135C48.4371 23.8547 48.3814 23.5184 48.2702 23.2044C48.1572 22.8905 47.9661 22.599 47.697 22.3299L38.0095 12.6424C37.5162 12.149 36.9 11.9023 36.1608 11.9023C35.4199 11.9023 34.8028 12.1714 34.3095 12.7096C33.7713 13.2478 33.5022 13.8874 33.5022 14.6283C33.5022 15.3674 33.7713 16.0061 34.3095 16.5443L39.2878 21.5226L19.98 21.5226C19.2176 21.5226 18.5789 21.78 18.0641 22.2949C17.5474 22.8115 17.2891 23.4511 17.2891 24.2135C17.2891 24.976 17.5474 25.6146 18.0641 26.1295C18.5789 26.6462 19.2176 26.9045 19.98 26.9045L39.2878 26.9045L34.3095 31.8828C33.8161 32.3762 33.5694 32.9924 33.5694 33.7315Z" fill="black"/>
</svg>
