<svg width="80" height="40" viewBox="0 0 80 40" fill="none" xmlns="http://www.w3.org/2000/svg">
<path d="M76.5784 15.2984C76.4736 14.9898 76.2808 14.7187 76.0237 14.5185C75.7666 14.3182 75.4565 14.1977 75.1317 14.1717L65.63 13.4167L61.5184 4.31502C61.3874 4.02188 61.1744 3.77289 60.9051 3.59812C60.6358 3.42335 60.3216 3.33025 60.0006 3.33008C59.6795 3.3299 59.3652 3.42265 59.0957 3.59713C58.8262 3.7716 58.613 4.02036 58.4817 4.31336L54.37 13.4167L44.8684 14.1717C44.5491 14.197 44.2439 14.3137 43.9893 14.5079C43.7346 14.7021 43.5413 14.9656 43.4325 15.2667C43.3237 15.5679 43.3039 15.8941 43.3756 16.2062C43.4473 16.5183 43.6074 16.8032 43.8367 17.0267L50.8584 23.8717L48.375 34.625C48.2996 34.9505 48.3238 35.2912 48.4444 35.6028C48.565 35.9144 48.7765 36.1825 49.0514 36.3724C49.3263 36.5623 49.6519 36.6652 49.986 36.6678C50.3201 36.6703 50.6473 36.5724 50.925 36.3867L60 30.3367L69.075 36.3867C69.3589 36.5752 69.6937 36.6722 70.0344 36.6647C70.3751 36.6573 70.7053 36.5457 70.9807 36.3449C71.256 36.1441 71.4633 35.8639 71.5746 35.5418C71.686 35.2197 71.696 34.8713 71.6034 34.5434L68.555 23.8767L76.115 17.0734C76.61 16.6267 76.7917 15.93 76.5784 15.2984Z" fill="#FF5B10"/>
<path d="M35.012 15.6669C35.0121 15.6669 35.0123 15.6669 35.0124 15.6669C35.045 15.6696 35.0762 15.6818 35.102 15.7019C35.1276 15.7219 35.1469 15.7488 35.1576 15.7794C35.1791 15.8444 35.1605 15.914 35.1106 15.9593C35.1104 15.9594 35.1103 15.9596 35.1101 15.9597L27.5516 22.7617L26.8554 23.3883L27.1128 24.2889L30.1598 34.9511C30.1599 34.9514 30.16 34.9517 30.1601 34.9521C30.1692 34.9849 30.168 35.0196 30.1569 35.0518C30.1457 35.0843 30.1248 35.1126 30.097 35.1328C30.0692 35.1531 30.0359 35.1644 30.0015 35.1651C29.9673 35.1659 29.9336 35.1561 29.905 35.1373C29.9049 35.1372 29.9048 35.1371 29.9047 35.1371L20.8321 29.0886L20 28.5339L19.168 29.0886L10.093 35.1386L10.0913 35.1397C10.0636 35.1583 10.0308 35.1681 9.99742 35.1678C9.96401 35.1676 9.93145 35.1573 9.90396 35.1383C9.87647 35.1193 9.85532 35.0925 9.84326 35.0613C9.8312 35.0302 9.82878 34.9961 9.83633 34.9636L9.83656 34.9625L12.3199 24.2092L12.5098 23.3868L11.9054 22.7976L4.88375 15.9526L4.88365 15.9525C4.86072 15.9302 4.84471 15.9017 4.83754 15.8705C4.83037 15.8392 4.83235 15.8066 4.84323 15.7765C4.85412 15.7464 4.87345 15.72 4.89891 15.7006C4.92437 15.6812 4.95489 15.6695 4.98682 15.667L4.98717 15.667L14.4888 14.912L15.3723 14.8418L15.7371 14.0341L19.8487 4.9308L19.8506 4.92663C19.8635 4.89786 19.8844 4.87343 19.9109 4.8563C19.9374 4.83917 19.9682 4.83006 19.9997 4.83008C20.0313 4.8301 20.0621 4.83924 20.0886 4.8564C20.115 4.87356 20.1359 4.89801 20.1488 4.9268L20.1488 4.9268L20.1514 4.93256L24.263 14.0342L24.6279 14.8418L25.5112 14.912L35.012 15.6669Z" stroke="#FF5B10" stroke-width="3"/>
</svg>
