<svg width="32" height="28" viewBox="0 0 32 28" fill="none" xmlns="http://www.w3.org/2000/svg">
<path d="M21 14C21 12.35 19.65 11 18 11C16.35 11 15 12.35 15 14C15 15.65 16.35 17 18 17C19.65 17 21 15.65 21 14ZM18 0.5C10.545 0.5 4.5 6.545 4.5 14H0L6 20L12 14H7.5C7.5 8.195 12.195 3.5 18 3.5C23.805 3.5 28.5 8.195 28.5 14C28.5 19.805 23.805 24.5 18 24.5C15.735 24.5 13.635 23.765 11.91 22.55L9.78 24.71C12.06 26.45 14.91 27.5 18 27.5C25.455 27.5 31.5 21.455 31.5 14C31.5 6.545 25.455 0.5 18 0.5Z" fill="#CBD0D5"/>
</svg>
