<svg width="96" height="96" viewBox="0 0 96 96" fill="none" xmlns="http://www.w3.org/2000/svg">
<path d="M54.6667 96C53.2028 96 51.9766 95.504 50.988 94.512C49.996 93.5234 49.5 92.2972 49.5 90.8333C49.5 89.3694 49.996 88.1432 50.988 87.1547C51.9766 86.1627 53.2028 85.6667 54.6667 85.6667H85.6667V13.3333H54.6667C53.2028 13.3333 51.9766 12.8373 50.988 11.8453C49.996 10.8568 49.5 9.63056 49.5 8.16667C49.5 6.70278 49.996 5.47483 50.988 4.48283C51.9766 3.49428 53.2028 3 54.6667 3H85.6667C88.5083 3 90.9418 4.01094 92.9672 6.03283C94.9891 8.05817 96 10.4917 96 13.3333V85.6667C96 88.5083 94.9891 90.9418 92.9672 92.9672C90.9418 94.9891 88.5083 96 85.6667 96H54.6667Z" fill="white"/>
<path d="M31.5454 31.2364C31.5454 29.8139 31.0718 28.5429 30.1246 27.4234C29.1773 26.4762 28.0148 25.9595 26.6371 25.8734C25.2593 25.7873 24.0537 26.2609 23.0204 27.2943L4.42038 45.8943C3.90372 46.4109 3.53688 46.9707 3.31988 47.5734C3.10633 48.1762 2.99955 48.822 2.99955 49.5109C2.99955 50.1998 3.10633 50.8457 3.31988 51.4484C3.53688 52.0512 3.90372 52.6109 4.42038 53.1276L23.0204 71.7276C23.9676 72.6748 25.1508 73.1484 26.5699 73.1484C27.9924 73.1484 29.1773 72.6318 30.1245 71.5984C31.1579 70.5651 31.6745 69.3372 31.6745 67.9146C31.6745 66.4955 31.1579 65.2693 30.1245 64.2359L20.5662 54.6776L57.637 54.6776C59.1009 54.6776 60.3272 54.1833 61.3157 53.1948C62.3077 52.2028 62.8037 50.9748 62.8037 49.5109C62.8037 48.0471 62.3077 46.8208 61.3157 45.8323C60.3272 44.8403 59.1009 44.3443 57.637 44.3443L20.5662 44.3443L30.1245 34.7859C31.0718 33.8387 31.5454 32.6555 31.5454 31.2364Z" fill="white"/>
</svg>
