<svg width="9" height="10" viewBox="0 0 9 10" fill="none" xmlns="http://www.w3.org/2000/svg">
<path fill-rule="evenodd" clip-rule="evenodd" d="M5.1928 1.48775C5.1928 1.16444 4.9307 0.902344 4.60739 0.902344C4.28408 0.902344 4.02199 1.16444 4.02199 1.48775V4.41503H1.09517C0.77186 4.41503 0.509766 4.67713 0.509766 5.00044C0.509766 5.32375 0.77186 5.58584 1.09517 5.58584H4.02199V8.51261C4.02199 8.83592 4.28408 9.09801 4.60739 9.09801C4.9307 9.09801 5.1928 8.83592 5.1928 8.51261V5.58584H8.12003C8.44334 5.58584 8.70543 5.32375 8.70543 5.00044C8.70543 4.67713 8.44334 4.41503 8.12003 4.41503H5.1928V1.48775Z" fill="#737980"/>
</svg>
