<svg width="16" height="14" viewBox="0 0 16 14" fill="none" xmlns="http://www.w3.org/2000/svg">
<path d="M2.68 2.68173C1.96 2.21014 1.784 1.29643 2.288 0.625878C2.792 -0.0373016 3.792 -0.199412 4.52 0.264814C5.24 0.736408 5.416 1.65012 4.912 2.32067C4.4 2.98385 3.408 3.14596 2.68 2.68173ZM11.2 12.5263H5.544C4.36 12.5263 3.352 11.7305 3.176 10.6546L1.6 3.68387H0L1.592 10.8757C1.896 12.6736 3.576 14 5.552 14H11.2V12.5263ZM11.384 9.5788H7.48L6.656 6.55765C7.92 7.21346 9.28 7.69243 10.776 7.45663V5.8871C9.472 6.11553 8.024 5.68815 7.024 4.96602L5.712 4.0302C5.528 3.89756 5.32 3.80914 5.104 3.75019C4.848 3.68387 4.576 3.66177 4.312 3.70598H4.296C3.312 3.86809 2.656 4.73022 2.824 5.6292L3.904 9.99145C4.128 11.0378 5.112 11.7894 6.264 11.7894H11.744L14.8 14L16 12.8947L11.384 9.5788Z" fill="#737980"/>
</svg>
