<svg width="17" height="19" viewBox="0 0 17 19" fill="none" xmlns="http://www.w3.org/2000/svg">
<path d="M-6.69027e-07 15.3056C-6.24425e-07 14.2852 0.341667 13.4144 1.025 12.6931C1.70833 11.9718 2.53333 11.6111 3.5 11.6111C4.46667 11.6111 5.29167 11.9718 5.975 12.6931C6.65833 13.4144 7 14.2852 7 15.3056C7 16.3259 6.65833 17.1968 5.975 17.9181C5.29167 18.6394 4.46667 19 3.5 19C2.53333 19 1.70833 18.6394 1.025 17.9181C0.341666 17.1968 -7.13629e-07 16.3259 -6.69027e-07 15.3056ZM2 15.3056C2 15.7454 2.14583 16.1192 2.4375 16.4271C2.72917 16.735 3.08333 16.8889 3.5 16.8889C3.91667 16.8889 4.27083 16.735 4.5625 16.4271C4.85417 16.1192 5 15.7454 5 15.3056C5 14.8657 4.85417 14.4919 4.5625 14.184C4.27083 13.8762 3.91667 13.7222 3.5 13.7222C3.08333 13.7222 2.72917 13.8762 2.4375 14.184C2.14583 14.4919 2 14.8657 2 15.3056ZM2.5 8.44444L2.5 1.05555C2.5 0.756481 2.59583 0.505786 2.7875 0.303472C2.97917 0.101157 3.21667 -6.02489e-07 3.5 -5.90104e-07C3.78333 -5.77719e-07 4.02083 0.101157 4.2125 0.303472C4.40417 0.505786 4.5 0.756481 4.5 1.05556L4.5 8.44444C4.5 8.74352 4.40417 8.99421 4.2125 9.19653C4.02083 9.39884 3.78333 9.5 3.5 9.5C3.21667 9.5 2.97917 9.39884 2.7875 9.19653C2.59583 8.99421 2.5 8.74352 2.5 8.44444ZM10 3.69444C10 2.67407 10.3417 1.80324 11.025 1.08194C11.7083 0.360648 12.5333 -1.95244e-07 13.5 -1.5299e-07C14.4667 -1.10736e-07 15.2917 0.360648 15.975 1.08194C16.6583 1.80324 17 2.67407 17 3.69444C17 4.71481 16.6583 5.58565 15.975 6.30694C15.2917 7.02824 14.4667 7.38889 13.5 7.38889C12.5333 7.38889 11.7083 7.02824 11.025 6.30694C10.3417 5.58565 10 4.71481 10 3.69444ZM12 3.69444C12 4.13426 12.1458 4.5081 12.4375 4.81597C12.7292 5.12384 13.0833 5.27778 13.5 5.27778C13.9167 5.27778 14.2708 5.12384 14.5625 4.81597C14.8542 4.5081 15 4.13426 15 3.69444C15 3.25463 14.8542 2.88079 14.5625 2.57292C14.2708 2.26505 13.9167 2.11111 13.5 2.11111C13.0833 2.11111 12.7292 2.26505 12.4375 2.57292C12.1458 2.88079 12 3.25463 12 3.69444ZM12.5 17.9444L12.5 10.5556C12.5 10.2565 12.5958 10.0058 12.7875 9.80347C12.9792 9.60116 13.2167 9.5 13.5 9.5C13.7833 9.5 14.0208 9.60116 14.2125 9.80347C14.4042 10.0058 14.5 10.2565 14.5 10.5556L14.5 17.9444C14.5 18.2435 14.4042 18.4942 14.2125 18.6965C14.0208 18.8988 13.7833 19 13.5 19C13.2167 19 12.9792 18.8988 12.7875 18.6965C12.5958 18.4942 12.5 18.2435 12.5 17.9444Z" fill="#FF5B10"/>
</svg>
