<svg width="354" height="36" viewBox="0 0 354 36" fill="none" xmlns="http://www.w3.org/2000/svg">
<path d="M0.976562 36H0V0.84375H0.976562V36ZM8.78906 36H4.88281V0.84375H8.78906V36ZM2.92969 36H1.95312V0.84375H2.92969V36ZM17.5781 36H15.625V0.84375H17.5781V36ZM11.7188 36H10.7422V0.84375H11.7188V36ZM14.6484 36H13.6719V0.84375H14.6484V36ZM22.4609 36H21.4844V0.84375H22.4609V36ZM27.3438 36H23.4375V0.84375H27.3438V36ZM30.2734 36H29.2969V0.84375H30.2734V36ZM33.2031 36H32.2266V0.84375H33.2031V36ZM38.0859 36H34.1797V0.84375H38.0859V36ZM41.0156 36H40.0391V0.84375H41.0156V36ZM43.9453 36H42.9688V0.84375H43.9453V36ZM51.7578 36H47.8516V0.84375H51.7578V36ZM45.8984 36H44.9219V0.84375H45.8984V36ZM54.6875 36H53.7109V0.84375H54.6875V36ZM61.5234 36H57.6172V0.84375H61.5234V36ZM63.4766 36H62.5V0.84375H63.4766V36ZM65.4297 36H64.4531V0.84375H65.4297V36ZM74.2188 36H70.3125V0.84375H74.2188V36ZM68.3594 36H67.3828V0.84375H68.3594V36ZM76.1719 36H75.1953V0.84375H76.1719V36ZM82.0312 36H78.125V0.84375H82.0312V36ZM83.9844 36H83.0078V0.84375H83.9844V36ZM90.8203 36H88.8672V0.84375H90.8203V36ZM87.8906 36H85.9375V0.84375H87.8906V36ZM94.7266 36H92.7734V0.84375H94.7266V36ZM97.6562 36H96.6797V0.84375H97.6562V36ZM103.516 36H99.6094V0.84375H103.516V36ZM105.469 36H104.492V0.84375H105.469V36ZM108.398 36H107.422V0.84375H108.398V36ZM117.188 36H113.281V0.84375H117.188V36ZM111.328 36H110.352V0.84375H111.328V36ZM125 36H123.047V0.84375H125V36ZM119.141 36H118.164V0.84375H119.141V36ZM122.07 36H121.094V0.84375H122.07V36ZM134.766 36H133.789V0.84375H134.766V36ZM132.812 36H128.906V0.84375H132.812V36ZM137.695 36H136.719V0.84375H137.695V36ZM143.555 36H141.602V0.84375H143.555V36ZM140.625 36H139.648V0.84375H140.625V36ZM146.484 36H145.508V0.84375H146.484V36ZM152.344 36H150.391V0.84375H152.344V36ZM155.273 36H154.277V0.84375H155.273V36ZM157.227 36H156.25V0.84375H157.227V36ZM166.016 36H164.062V0.84375H166.016V36ZM163.086 36H161.133V0.84375H163.086V36ZM169.922 36H167.969V0.84375H169.922V36ZM178.711 36H176.758V0.84375H178.711V36ZM172.852 36H171.875V0.84375H172.852V36ZM175.781 36H174.805V0.84375H175.781V36ZM189.453 36H187.5V0.84375H189.453V36ZM183.594 36H182.617V0.84375H183.594V36ZM191.406 36H190.43V0.84375H191.406V36ZM194.336 36H193.359V0.84375H194.336V36ZM203.125 36H199.219V0.84375H203.125V36ZM197.266 36H196.289V0.84375H197.266V36ZM205.078 36H204.102V0.84375H205.078V36ZM212.891 36H208.984V0.84375H212.891V36ZM207.031 36H206.055V0.84375H207.031V36ZM215.82 36H214.844V0.84375H215.82V36ZM222.656 36H218.75V0.84375H222.656V36ZM224.609 36H223.633V0.84375H224.609V36ZM226.562 36H225.586V0.84375H226.562V36ZM235.352 36H231.445V0.84375H235.352V36ZM229.492 36H228.516V0.84375H229.492V36ZM237.305 36H236.328V0.84375H237.305V36ZM243.164 36H239.258V0.84375H243.164V36ZM245.117 36H244.141V0.84375H245.117V36ZM251.953 36H250V0.84375H251.953V36ZM249.023 36H247.07V0.84375H249.023V36ZM255.859 36H253.906V0.84375H255.859V36ZM264.648 36H262.695V0.84375H264.648V36ZM258.789 36H257.812V0.84375H258.789V36ZM261.719 36H260.742V0.84375H261.719V36ZM275.391 36H273.438V0.84375H275.391V36ZM269.531 36H268.555V0.84375H269.531V36ZM277.344 36H276.367V0.84375H277.344V36ZM280.273 36H279.297V0.84375H280.273V36ZM289.062 36H285.156V0.84375H289.062V36ZM283.203 36H282.227V0.84375H283.203V36ZM291.016 36H290.039V0.84375H291.016V36ZM298.828 36H294.922V0.84375H298.828V36ZM292.969 36H291.992V0.84375H292.969V36ZM302.734 36H300.781V0.84375H302.734V36ZM305.664 36H304.668V0.84375H305.664V36ZM307.617 36H306.641V0.84375H307.617V36ZM318.359 36H316.406V0.84375H318.359V36ZM312.5 36H311.523V0.84375H312.5V36ZM315.43 36H314.453V0.84375H315.43V36ZM324.219 36H322.266V0.84375H324.219V36ZM329.102 36H328.125V0.84375H329.102V36ZM331.055 36H330.078V0.84375H331.055V36ZM336.914 36H334.961V0.84375H336.914V36ZM333.984 36H333.008V0.84375H333.984V36ZM339.844 36H338.867V0.84375H339.844V36ZM348.633 36H346.68V0.84375H348.633V36ZM344.727 36H343.75V0.84375H344.727V36ZM353.516 36H352.539V0.84375H353.516V36Z" fill="black"/>
</svg>
