<svg width="153" height="69" viewBox="0 0 153 69" fill="none" xmlns="http://www.w3.org/2000/svg">
<path d="M118.851 53.4309H110.531V10.4229H118.851V53.4309Z" fill="#FF5B10"/>
<path d="M103.691 35.5106H85.0029V53.4306H76.1069V10.9346H106.379V18.3586H85.0029V28.0226H103.691V35.5106Z" fill="#FF5B10"/>
<path d="M70.5785 53.4309H62.2585V21.9429H70.5785V53.4309ZM70.5785 18.1669H62.2585V10.4229H70.5785V18.1669Z" fill="#FF5B10"/>
<path d="M47.904 53.4308H39.584V21.9428H47.392V25.7188C50.144 21.4948 53.344 21.1108 56.736 21.1108H57.824V29.6228C57.056 29.4948 56.288 29.4308 55.52 29.4308C50.4 29.4308 47.904 31.9908 47.904 37.0468V53.4308Z" fill="#FF5B10"/>
<path d="M34.0902 2.72792C48.6395 -0.690418 54.0787 0.493253 55.5836 3.5825C56.9062 6.29778 42.3568 9.85752 34.9168 11.298V18.1104L25.8235 26.6562V12.9829L18.3834 14.6921C13.2707 16.1562 9.21022 13.8375 8.10799 12.1283L0.667969 2.72792H8.93466C11.58 6.82992 14.9899 7.94111 16.6432 7.65625C17.7455 7.65625 19.5408 6.14625 34.0902 2.72792Z" fill="#FF5B10"/>
<path fill-rule="evenodd" clip-rule="evenodd" d="M16.931 34.7435V53.4308H25.827V26.6562L16.931 34.7435Z" fill="#FF5B10"/>
<path fill-rule="evenodd" clip-rule="evenodd" d="M144.296 26.1325V41.1425C144.296 44.5345 141.672 47.0305 137.896 47.0305C134.376 47.0305 132.584 45.0465 132.584 41.1425V21.9425H124.264V42.3585C124.264 49.2705 129.192 53.7505 135.784 53.7505C139.688 53.7505 143.144 52.0865 144.296 49.2705V54.3905C144.296 58.5505 141.544 61.1745 138.536 61.1745C134.184 61.1745 132.008 58.8705 132.008 55.1585H124.264C124.264 63.2865 128.936 68.3425 138.152 68.3425C146.216 68.3425 152.616 63.1585 152.616 54.2625V18.5688L144.296 26.1325Z" fill="#FF5B10"/>
</svg>
