<svg width="153" height="69" viewBox="0 0 153 69" fill="none" xmlns="http://www.w3.org/2000/svg">
<path d="M118.578 53.4309H110.258V10.4229H118.578V53.4309Z" fill="#030035"/>
<path d="M103.418 35.5106H84.7296V53.4306H75.8336V10.9346H106.106V18.3586H84.7296V28.0226H103.418V35.5106Z" fill="#030035"/>
<path d="M70.305 53.4309H61.985V21.9429H70.305V53.4309ZM70.305 18.1669H61.985V10.4229H70.305V18.1669Z" fill="#030035"/>
<path d="M47.6305 53.4308H39.3105V21.9428H47.1185V25.7188C49.8705 21.4948 53.0705 21.1108 56.4625 21.1108H57.5505V29.6228C56.7825 29.4948 56.0145 29.4308 55.2465 29.4308C50.1265 29.4308 47.6305 31.9908 47.6305 37.0468V53.4308Z" fill="#030035"/>
<path d="M33.8167 2.72792C48.3661 -0.690418 53.8053 0.493253 55.3101 3.5825C56.6328 6.29778 42.0834 9.85752 34.6434 11.298V18.1104L25.55 26.6562V12.9829L18.11 14.6921C12.9973 16.1562 8.93678 13.8375 7.83456 12.1283L0.394531 2.72792H8.66122C11.3066 6.82992 14.7165 7.94111 16.3698 7.65625C17.472 7.65625 19.2673 6.14625 33.8167 2.72792Z" fill="#030035"/>
<path fill-rule="evenodd" clip-rule="evenodd" d="M16.6575 34.7435V53.4308H25.5535V26.6562L16.6575 34.7435Z" fill="#030035"/>
<path fill-rule="evenodd" clip-rule="evenodd" d="M144.023 26.1325V41.1425C144.023 44.5345 141.399 47.0305 137.623 47.0305C134.103 47.0305 132.311 45.0465 132.311 41.1425V21.9425H123.991V42.3585C123.991 49.2705 128.919 53.7505 135.511 53.7505C139.415 53.7505 142.871 52.0865 144.023 49.2705V54.3905C144.023 58.5505 141.271 61.1745 138.263 61.1745C133.911 61.1745 131.735 58.8705 131.735 55.1585H123.991C123.991 63.2865 128.663 68.3425 137.879 68.3425C145.943 68.3425 152.343 63.1585 152.343 54.2625V18.5688L144.023 26.1325Z" fill="#030035"/>
</svg>
