<svg width="186" height="69" viewBox="0 0 186 69" fill="none" xmlns="http://www.w3.org/2000/svg">
<path d="M26.9754 7.25C30.3888 7.25 33.156 4.33985 33.156 0.75C33.156 0.496344 33.1421 0.246082 33.1153 0H50.7458V69H33.1153C33.1421 68.7539 33.156 68.5037 33.156 68.25C33.156 64.6601 30.3888 61.75 26.9754 61.75C23.5619 61.75 20.7948 64.6601 20.7948 68.25C20.7948 68.5037 20.8086 68.7539 20.8355 69H3.20285V47.4415C3.20285 47.4415 3.52718 47.0747 1.9468 44.5065C0.366417 41.9384 0 41.638 0 41.638L5.90081 46.3294C5.90081 46.3294 7.64371 48.451 12.1608 48.7054C16.6779 48.9599 18.6781 47.2352 18.6781 47.2352L34.2763 34.5819L34.2793 34.5821L35.3169 33.6288C34.65 35.334 33.2158 37.0266 32.0472 38.3803L45.4543 40.0647L46.7965 38.2214C37.5307 35.7636 38.3655 32.4198 38.8047 30.6608C38.8315 30.5533 38.8569 30.4518 38.8784 30.3567L44.2228 25.4466C46.092 23.7762 48.4398 20.9118 42.8207 20.8834C38.2964 20.8605 36.7587 22.2868 34.8603 24.0476C34.5246 24.3589 34.1776 24.6808 33.8009 25.0069C33.624 25.16 33.4381 25.328 33.2387 25.508C26.9754 31.6394 25.6625 32.3509 8.41439 32.7341L11.514 32.9555L8.41245 32.7357L6.11372 34.6783C6.88161 34.7885 7.77555 34.8932 8.72297 35.0041C14.9279 35.7309 23.4268 36.7263 13.8323 41.2793C9.63633 43.2704 5.88223 42.5581 3.20285 41.638V0H20.8355C20.8086 0.246082 20.7948 0.496344 20.7948 0.75C20.7948 4.33985 23.5619 7.25 26.9754 7.25Z" fill="#FF5B10"/>
<path fill-rule="evenodd" clip-rule="evenodd" d="M185.419 21.1406V26.2621L178.832 32.2497V44.135C178.832 46.8203 176.755 48.7962 173.766 48.7962C170.979 48.7962 169.56 47.2256 169.56 44.135V28.9355H162.974V45.0976C162.974 50.5695 166.875 54.116 172.094 54.116C175.184 54.116 177.92 52.7987 178.832 50.5695V54.6227C178.832 57.9159 176.654 59.9932 174.272 59.9932C170.827 59.9932 169.104 58.1692 169.104 55.2307H162.974C162.974 61.6651 166.673 65.6677 173.968 65.6677C180.352 65.6677 185.419 61.5638 185.419 54.5214V21.1406H185.419Z" fill="white"/>
<path d="M158.69 53.8619H152.104V19.8149H158.69V53.8619Z" fill="white"/>
<path d="M146.687 39.6756H131.893V53.8619H124.851V20.2202H148.815V26.0974H131.893V33.7478H146.687V39.6756Z" fill="white"/>
<path d="M120.475 53.8619H113.888V28.9347H120.475V53.8619ZM120.475 25.9454H113.888V19.8149H120.475V25.9454Z" fill="white"/>
<path d="M102.524 53.8613H95.9373V28.934H102.118V31.9233C104.297 28.5794 106.83 28.2754 109.516 28.2754H110.377V35.0139C109.769 34.9125 109.161 34.8619 108.553 34.8619C104.5 34.8619 102.524 36.8885 102.524 40.891V53.8613Z" fill="white"/>
<path d="M85.0466 53.8619H78.0041V26.0974H67.8711V20.2202H95.2303V26.0974H85.0466V53.8619Z" fill="white"/>
</svg>
