<svg width="186" height="70" viewBox="0 0 186 70" fill="none" xmlns="http://www.w3.org/2000/svg">
<path d="M27.409 7.35156C30.8224 7.35156 33.5896 4.44141 33.5896 0.851562C33.5896 0.597907 33.5757 0.347644 33.5489 0.101562H51.1794V69.1016H33.5489C33.5757 68.8555 33.5896 68.6052 33.5896 68.3516C33.5896 64.7617 30.8224 61.8516 27.409 61.8516C23.9955 61.8516 21.2284 64.7617 21.2284 68.3516C21.2284 68.6052 21.2422 68.8555 21.2691 69.1016H3.63644V47.5431C3.63644 47.5431 3.96077 47.1762 2.38039 44.6081C0.80001 42.04 0.433594 41.7396 0.433594 41.7396L6.3344 46.431C6.3344 46.431 8.0773 48.5525 12.5944 48.807C17.1115 49.0615 19.1117 47.3368 19.1117 47.3368L34.7099 34.6834L34.7129 34.6836L35.7505 33.7303C35.0836 35.4356 33.6494 37.1282 32.4808 38.4819L45.8879 40.1663L47.2301 38.323C37.9643 35.8651 38.7991 32.5213 39.2383 30.7623C39.2651 30.6549 39.2905 30.5533 39.312 30.4583L44.6564 25.5481C46.5256 23.8777 48.8734 21.0133 43.2543 20.9849C38.73 20.962 37.1923 22.3884 35.2939 24.1492C34.9582 24.4605 34.6112 24.7824 34.2345 25.1085C34.0576 25.2616 33.8717 25.4295 33.6723 25.6096C27.409 31.741 26.0961 32.4524 8.84798 32.8356L11.9476 33.0571L8.84604 32.8372L6.54731 34.7799C7.3152 34.89 8.20914 34.9947 9.15656 35.1057C15.3615 35.8325 23.8604 36.8279 14.2659 41.3809C10.0699 43.372 6.31582 42.6596 3.63644 41.7396V0.101562H21.2691C21.2422 0.347644 21.2284 0.597907 21.2284 0.851562C21.2284 4.44141 23.9955 7.35156 27.409 7.35156Z" fill="white"/>
<path fill-rule="evenodd" clip-rule="evenodd" d="M185.852 21.2422V26.3636L179.266 32.3513V44.2366C179.266 46.9218 177.189 48.8978 174.199 48.8978C171.413 48.8978 169.994 47.3271 169.994 44.2366V29.037H163.408V45.1992C163.408 50.671 167.309 54.2176 172.527 54.2176C175.618 54.2176 178.354 52.9003 179.266 50.671V54.7242C179.266 58.0175 177.087 60.0948 174.706 60.0948C171.261 60.0948 169.538 58.2708 169.538 55.3322H163.408C163.408 61.7667 167.106 65.7692 174.402 65.7692C180.786 65.7692 185.852 61.6654 185.852 54.6229V21.2422H185.852Z" fill="white"/>
<path d="M159.124 53.9635H152.537V19.9165H159.124V53.9635Z" fill="white"/>
<path d="M147.121 39.7772H132.327V53.9634H125.284V20.3218H149.249V26.1989H132.327V33.8494H147.121V39.7772Z" fill="white"/>
<path d="M120.908 53.9635H114.322V29.0362H120.908V53.9635ZM120.908 26.047H114.322V19.9165H120.908V26.047Z" fill="white"/>
<path d="M102.957 53.9628H96.3709V29.0356H102.552V32.0248C104.731 28.6809 107.264 28.377 109.949 28.377H110.81V35.1154C110.202 35.0141 109.594 34.9634 108.986 34.9634C104.933 34.9634 102.957 36.99 102.957 40.9926V53.9628Z" fill="white"/>
<path d="M85.4802 53.9634H78.4377V26.1989H68.3047V20.3218H95.6639V26.1989H85.4802V53.9634Z" fill="white"/>
</svg>
