<svg width="187" height="70" viewBox="0 0 187 70" fill="none" xmlns="http://www.w3.org/2000/svg">
<path d="M27.6824 7.35156C31.0959 7.35156 33.863 4.44141 33.863 0.851562C33.863 0.597907 33.8492 0.347644 33.8223 0.101562H51.4528V69.1016H33.8223C33.8492 68.8555 33.863 68.6052 33.863 68.3516C33.863 64.7617 31.0959 61.8516 27.6824 61.8516C24.269 61.8516 21.5018 64.7617 21.5018 68.3516C21.5018 68.6052 21.5157 68.8555 21.5425 69.1016H3.90988V47.5431C3.90988 47.5431 4.23421 47.1762 2.65383 44.6081C1.07345 42.04 0.707031 41.7396 0.707031 41.7396L6.60784 46.431C6.60784 46.431 8.35074 48.5525 12.8678 48.807C17.3849 49.0615 19.3851 47.3368 19.3851 47.3368L34.9833 34.6834L34.9863 34.6836L36.0239 33.7303C35.3571 35.4356 33.9229 37.1282 32.7543 38.4819L46.1613 40.1663L47.5036 38.323C38.2377 35.8651 39.0726 32.5213 39.5117 30.7623C39.5386 30.6549 39.5639 30.5533 39.5854 30.4583L44.9298 25.5481C46.799 23.8777 49.1468 21.0133 43.5277 20.9849C39.0035 20.962 37.4657 22.3884 35.5673 24.1492C35.2317 24.4605 34.8847 24.7824 34.508 25.1085C34.331 25.2616 34.1451 25.4295 33.9458 25.6096C27.6824 31.741 26.3696 32.4524 9.12142 32.8356L12.221 33.0571L9.11948 32.8372L6.82075 34.7799C7.58864 34.89 8.48258 34.9947 9.43 35.1057C15.6349 35.8325 24.1338 36.8279 14.5393 41.3809C10.3434 43.372 6.58926 42.6596 3.90988 41.7396V0.101562H21.5425C21.5157 0.347644 21.5018 0.597907 21.5018 0.851562C21.5018 4.44141 24.269 7.35156 27.6824 7.35156Z" fill="#FF5B10"/>
<path fill-rule="evenodd" clip-rule="evenodd" d="M186.126 21.2422V26.3636L179.539 32.3513V44.2366C179.539 46.9218 177.462 48.8978 174.473 48.8978C171.686 48.8978 170.267 47.3271 170.267 44.2366V29.037H163.681V45.1992C163.681 50.671 167.582 54.2176 172.801 54.2176C175.891 54.2176 178.627 52.9003 179.539 50.671V54.7242C179.539 58.0175 177.361 60.0948 174.979 60.0948C171.534 60.0948 169.812 58.2708 169.812 55.3322H163.681C163.681 61.7667 167.38 65.7692 174.675 65.7692C181.059 65.7692 186.126 61.6654 186.126 54.6229V21.2422H186.126Z" fill="#02076F"/>
<path d="M159.397 53.9635H152.811V19.9165H159.397V53.9635Z" fill="#02076F"/>
<path d="M147.394 39.7772H132.6V53.9634H125.558V20.3218H149.522V26.1989H132.6V33.8494H147.394V39.7772Z" fill="#02076F"/>
<path d="M121.182 53.9635H114.595V29.0362H121.182V53.9635ZM121.182 26.047H114.595V19.9165H121.182V26.047Z" fill="#02076F"/>
<path d="M103.231 53.9628H96.6443V29.0356H102.825V32.0248C105.004 28.6809 107.537 28.377 110.223 28.377H111.084V35.1154C110.476 35.0141 109.868 34.9634 109.26 34.9634C105.207 34.9634 103.231 36.99 103.231 40.9926V53.9628Z" fill="#02076F"/>
<path d="M85.7536 53.9634H78.7112V26.1989H68.5781V20.3218H95.9373V26.1989H85.7536V53.9634Z" fill="#02076F"/>
</svg>
