<svg width="153" height="69" viewBox="0 0 153 69" fill="none" xmlns="http://www.w3.org/2000/svg">
<path d="M119.074 53.4309H110.754V10.4229H119.074V53.4309Z" fill="#02076F"/>
<path d="M103.914 35.5106H85.2257V53.4306H76.3297V10.9346H106.602V18.3586H85.2257V28.0226H103.914V35.5106Z" fill="#02076F"/>
<path d="M70.8011 53.4309H62.4811V21.9429H70.8011V53.4309ZM70.8011 18.1669H62.4811V10.4229H70.8011V18.1669Z" fill="#02076F"/>
<path d="M48.1266 53.4308H39.8066V21.9428H47.6146V25.7188C50.3666 21.4948 53.5666 21.1108 56.9586 21.1108H58.0466V29.6228C57.2786 29.4948 56.5106 29.4308 55.7426 29.4308C50.6226 29.4308 48.1266 31.9908 48.1266 37.0468V53.4308Z" fill="#02076F"/>
<path d="M34.3128 2.72792C48.8622 -0.690418 54.3014 0.493253 55.8062 3.5825C57.1289 6.29778 42.5795 9.85752 35.1395 11.298V18.1104L26.0461 26.6562V12.9829L18.6061 14.6921C13.4934 16.1562 9.43287 13.8375 8.33065 12.1283L0.890625 2.72792H9.15732C11.8027 6.82992 15.2126 7.94111 16.8659 7.65625C17.9681 7.65625 19.7634 6.14625 34.3128 2.72792Z" fill="#02076F"/>
<path fill-rule="evenodd" clip-rule="evenodd" d="M17.1536 34.7435V53.4308H26.0496V26.6562L17.1536 34.7435Z" fill="#02076F"/>
<path fill-rule="evenodd" clip-rule="evenodd" d="M144.519 26.1325V41.1425C144.519 44.5345 141.895 47.0305 138.119 47.0305C134.599 47.0305 132.807 45.0465 132.807 41.1425V21.9425H124.487V42.3585C124.487 49.2705 129.415 53.7505 136.007 53.7505C139.911 53.7505 143.367 52.0865 144.519 49.2705V54.3905C144.519 58.5505 141.767 61.1745 138.759 61.1745C134.407 61.1745 132.231 58.8705 132.231 55.1585H124.487C124.487 63.2865 129.159 68.3425 138.375 68.3425C146.439 68.3425 152.839 63.1585 152.839 54.2625V18.5688L144.519 26.1325Z" fill="#02076F"/>
</svg>
