<svg width="24" height="24" viewBox="0 0 24 24" fill="none" xmlns="http://www.w3.org/2000/svg">
<rect width="24" height="24" rx="5" fill="#CBD0D5"/>
<path d="M4 18L12.2082 6.11719C12.4396 5.77865 12.7358 5.50781 13.0968 5.30469C13.4573 5.10156 13.8417 5 14.25 5H18.3745C18.8918 5 19.3105 5.19635 19.6307 5.58906C19.9503 5.98177 20.0625 6.42865 19.9672 6.92969L17.8845 18H4ZM14.2092 13.125C14.7809 13.125 15.2641 12.9286 15.6589 12.5359C16.0537 12.1432 16.251 11.6625 16.251 11.0938C16.251 10.525 16.0537 10.0443 15.6589 9.65156C15.2641 9.25885 14.7809 9.0625 14.2092 9.0625C13.6375 9.0625 13.1542 9.25885 12.7595 9.65156C12.3647 10.0443 12.1674 10.525 12.1674 11.0938C12.1674 11.6625 12.3647 12.1432 12.7595 12.5359C13.1542 12.9286 13.6375 13.125 14.2092 13.125Z" fill="#737980"/>
</svg>
